<svg width="40" height="120" viewBox="0 0 40 120" fill="none" xmlns="http://www.w3.org/2000/svg">
<path d="M2.61546 1C2.18701 1 1.77611 1.16682 1.47316 1.46375C1.1702 1.76068 1 2.16341 1 2.58333C1 3.00326 1.1702 3.40599 1.47316 3.70292C1.77611 3.99985 2.18701 4.16667 2.61546 4.16667H3.41026C3.76105 4.16726 4.1021 4.27975 4.38189 4.48713C4.66168 4.69451 4.86499 4.98551 4.9611 5.31617L10.0853 22.8912C10.3752 23.883 10.9866 24.7554 11.8271 25.3764C12.6677 25.9974 13.6917 26.3333 14.7443 26.3333H29.5064C30.4752 26.3335 31.4218 26.0491 32.224 25.5168C33.0262 24.9845 33.6473 24.2288 34.007 23.3472L38.7694 11.6748C38.9652 11.1945 39.038 10.6745 38.9814 10.1603C38.9247 9.64608 38.7405 9.15327 38.4447 8.72495C38.1489 8.29663 37.7506 7.94585 37.2845 7.70326C36.8184 7.46067 36.2988 7.33366 35.7711 7.33333H8.90928L8.06601 4.44533C7.77693 3.45345 7.16626 2.58076 6.3263 1.95917C5.48634 1.33759 4.46275 1.0009 3.41026 1H2.61546ZM13.1935 22.0172L9.83333 10.5H35.7679L31.0055 22.1723C30.8855 22.4658 30.6786 22.7174 30.4114 22.8946C30.1442 23.0718 29.829 23.1666 29.5064 23.1667H14.7443C14.3935 23.1661 14.0525 23.0536 13.7727 22.8462C13.4929 22.6388 13.2896 22.3478 13.1935 22.0172Z" fill="#181818"/>
<path d="M15.5391 39C16.1756 39 16.8058 38.8771 17.3938 38.6384C17.9817 38.3997 18.516 38.0498 18.966 37.6088C19.4161 37.1677 19.773 36.644 20.0166 36.0677C20.2601 35.4914 20.3855 34.8738 20.3855 34.25C20.3855 33.6262 20.2601 33.0085 20.0166 32.4323C19.773 31.856 19.4161 31.3323 18.966 30.8912C18.516 30.4502 17.9817 30.1003 17.3938 29.8616C16.8058 29.6229 16.1756 29.5 15.5391 29.5C14.2538 29.5 13.0211 30.0004 12.1122 30.8912C11.2033 31.782 10.6928 32.9902 10.6928 34.25C10.6928 35.5098 11.2033 36.718 12.1122 37.6088C13.0211 38.4996 14.2538 39 15.5391 39ZM15.5391 35.8333C15.1107 35.8333 14.6998 35.6665 14.3968 35.3696C14.0939 35.0727 13.9237 34.6699 13.9237 34.25C13.9237 33.8301 14.0939 33.4273 14.3968 33.1304C14.6998 32.8335 15.1107 32.6667 15.5391 32.6667C15.9676 32.6667 16.3785 32.8335 16.6814 33.1304C16.9844 33.4273 17.1546 33.8301 17.1546 34.25C17.1546 34.6699 16.9844 35.0727 16.6814 35.3696C16.3785 35.6665 15.9676 35.8333 15.5391 35.8333Z" fill="#181818"/>
<path d="M28.4628 39C29.0992 39 29.7294 38.8771 30.3174 38.6384C30.9054 38.3997 31.4397 38.0498 31.8897 37.6088C32.3397 37.1677 32.6967 36.644 32.9403 36.0677C33.1838 35.4914 33.3092 34.8738 33.3092 34.25C33.3092 33.6262 33.1838 33.0085 32.9403 32.4323C32.6967 31.856 32.3397 31.3323 31.8897 30.8912C31.4397 30.4502 30.9054 30.1003 30.3174 29.8616C29.7294 29.6229 29.0992 29.5 28.4628 29.5C27.1775 29.5 25.9448 30.0004 25.0359 30.8912C24.127 31.782 23.6164 32.9902 23.6164 34.25C23.6164 35.5098 24.127 36.718 25.0359 37.6088C25.9448 38.4996 27.1775 39 28.4628 39ZM28.4628 35.8333C28.0343 35.8333 27.6234 35.6665 27.3205 35.3696C27.0175 35.0727 26.8473 34.6699 26.8473 34.25C26.8473 33.8301 27.0175 33.4273 27.3205 33.1304C27.6234 32.8335 28.0343 32.6667 28.4628 32.6667C28.8912 32.6667 29.3021 32.8335 29.6051 33.1304C29.9081 33.4273 30.0783 33.8301 30.0783 34.25C30.0783 34.6699 29.9081 35.0727 29.6051 35.3696C29.3021 35.6665 28.8912 35.8333 28.4628 35.8333Z" fill="#181818"/>
<path d="M2.61546 41C2.18701 41 1.77611 41.1668 1.47316 41.4637C1.1702 41.7607 1 42.1634 1 42.5833C1 43.0033 1.1702 43.406 1.47316 43.7029C1.77611 43.9999 2.18701 44.1667 2.61546 44.1667H3.41026C3.76105 44.1673 4.1021 44.2797 4.38189 44.4871C4.66168 44.6945 4.86499 44.9855 4.9611 45.3162L10.0853 62.8912C10.3752 63.883 10.9866 64.7554 11.8271 65.3764C12.6677 65.9974 13.6917 66.3333 14.7443 66.3333H29.5064C30.4752 66.3335 31.4218 66.0491 32.224 65.5168C33.0262 64.9845 33.6473 64.2288 34.007 63.3472L38.7694 51.6748C38.9652 51.1945 39.038 50.6745 38.9814 50.1603C38.9247 49.6461 38.7405 49.1533 38.4447 48.725C38.1489 48.2966 37.7506 47.9458 37.2845 47.7033C36.8184 47.4607 36.2988 47.3337 35.7711 47.3333H8.90928L8.06601 44.4453C7.77693 43.4534 7.16626 42.5808 6.3263 41.9592C5.48634 41.3376 4.46275 41.0009 3.41026 41H2.61546ZM13.1935 62.0172L9.83333 50.5H35.7679L31.0055 62.1723C30.8855 62.4658 30.6786 62.7174 30.4114 62.8946C30.1442 63.0718 29.829 63.1666 29.5064 63.1667H14.7443C14.3935 63.1661 14.0525 63.0536 13.7727 62.8462C13.4929 62.6388 13.2896 62.3478 13.1935 62.0172Z" fill="#DC143C"/>
<path d="M15.5392 79C16.1757 79 16.8059 78.8771 17.3939 78.6384C17.9818 78.3997 18.5161 78.0498 18.9661 77.6088C19.4162 77.1677 19.7731 76.644 20.0167 76.0677C20.2602 75.4914 20.3856 74.8738 20.3856 74.25C20.3856 73.6262 20.2602 73.0085 20.0167 72.4323C19.7731 71.856 19.4162 71.3323 18.9661 70.8912C18.5161 70.4502 17.9818 70.1003 17.3939 69.8616C16.8059 69.6229 16.1757 69.5 15.5392 69.5C14.2539 69.5 13.0212 70.0004 12.1123 70.8912C11.2034 71.782 10.6929 72.9902 10.6929 74.25C10.6929 75.5098 11.2034 76.718 12.1123 77.6088C13.0212 78.4996 14.2539 79 15.5392 79ZM15.5392 75.8333C15.1108 75.8333 14.6999 75.6665 14.3969 75.3696C14.094 75.0727 13.9238 74.6699 13.9238 74.25C13.9238 73.8301 14.094 73.4273 14.3969 73.1304C14.6999 72.8335 15.1108 72.6667 15.5392 72.6667C15.9677 72.6667 16.3786 72.8335 16.6815 73.1304C16.9845 73.4273 17.1547 73.8301 17.1547 74.25C17.1547 74.6699 16.9845 75.0727 16.6815 75.3696C16.3786 75.6665 15.9677 75.8333 15.5392 75.8333Z" fill="#DC143C"/>
<path d="M28.4626 79C29.099 79 29.7292 78.8771 30.3172 78.6384C30.9052 78.3997 31.4395 78.0498 31.8895 77.6088C32.3395 77.1677 32.6965 76.644 32.9401 76.0677C33.1836 75.4914 33.309 74.8738 33.309 74.25C33.309 73.6262 33.1836 73.0085 32.9401 72.4323C32.6965 71.856 32.3395 71.3323 31.8895 70.8912C31.4395 70.4502 30.9052 70.1003 30.3172 69.8616C29.7292 69.6229 29.099 69.5 28.4626 69.5C27.1773 69.5 25.9446 70.0004 25.0357 70.8912C24.1268 71.782 23.6162 72.9902 23.6162 74.25C23.6162 75.5098 24.1268 76.718 25.0357 77.6088C25.9446 78.4996 27.1773 79 28.4626 79ZM28.4626 75.8333C28.0341 75.8333 27.6232 75.6665 27.3203 75.3696C27.0173 75.0727 26.8471 74.6699 26.8471 74.25C26.8471 73.8301 27.0173 73.4273 27.3203 73.1304C27.6232 72.8335 28.0341 72.6667 28.4626 72.6667C28.891 72.6667 29.3019 72.8335 29.6049 73.1304C29.9079 73.4273 30.0781 73.8301 30.0781 74.25C30.0781 74.6699 29.9079 75.0727 29.6049 75.3696C29.3019 75.6665 28.891 75.8333 28.4626 75.8333Z" fill="#DC143C"/>
<path d="M2.61546 81C2.18701 81 1.77611 81.1668 1.47316 81.4637C1.1702 81.7607 1 82.1634 1 82.5833C1 83.0033 1.1702 83.406 1.47316 83.7029C1.77611 83.9999 2.18701 84.1667 2.61546 84.1667H3.41026C3.76105 84.1673 4.1021 84.2797 4.38189 84.4871C4.66168 84.6945 4.86499 84.9855 4.9611 85.3162L10.0853 102.891C10.3752 103.883 10.9866 104.755 11.8271 105.376C12.6677 105.997 13.6917 106.333 14.7443 106.333H29.5064C30.4752 106.333 31.4218 106.049 32.224 105.517C33.0262 104.984 33.6473 104.229 34.007 103.347L38.7694 91.6748C38.9652 91.1945 39.038 90.6745 38.9814 90.1603C38.9247 89.6461 38.7405 89.1533 38.4447 88.725C38.1489 88.2966 37.7506 87.9458 37.2845 87.7033C36.8184 87.4607 36.2988 87.3337 35.7711 87.3333H8.90928L8.06601 84.4453C7.77693 83.4534 7.16626 82.5808 6.3263 81.9592C5.48634 81.3376 4.46275 81.0009 3.41026 81H2.61546ZM13.1935 102.017L9.83333 90.5H35.7679L31.0055 102.172C30.8855 102.466 30.6786 102.717 30.4114 102.895C30.1442 103.072 29.829 103.167 29.5064 103.167H14.7443C14.3935 103.166 14.0525 103.054 13.7727 102.846C13.4929 102.639 13.2896 102.348 13.1935 102.017Z" fill="#F5F5F5"/>
<path d="M15.5392 119C16.1757 119 16.8059 118.877 17.3939 118.638C17.9818 118.4 18.5161 118.05 18.9661 117.609C19.4162 117.168 19.7731 116.644 20.0167 116.068C20.2602 115.491 20.3856 114.874 20.3856 114.25C20.3856 113.626 20.2602 113.008 20.0167 112.432C19.7731 111.856 19.4162 111.332 18.9661 110.891C18.5161 110.45 17.9818 110.1 17.3939 109.862C16.8059 109.623 16.1757 109.5 15.5392 109.5C14.2539 109.5 13.0212 110 12.1123 110.891C11.2034 111.782 10.6929 112.99 10.6929 114.25C10.6929 115.51 11.2034 116.718 12.1123 117.609C13.0212 118.5 14.2539 119 15.5392 119ZM15.5392 115.833C15.1108 115.833 14.6999 115.666 14.3969 115.37C14.094 115.073 13.9238 114.67 13.9238 114.25C13.9238 113.83 14.094 113.427 14.3969 113.13C14.6999 112.834 15.1108 112.667 15.5392 112.667C15.9677 112.667 16.3786 112.834 16.6815 113.13C16.9845 113.427 17.1547 113.83 17.1547 114.25C17.1547 114.67 16.9845 115.073 16.6815 115.37C16.3786 115.666 15.9677 115.833 15.5392 115.833Z" fill="#F5F5F5"/>
<path d="M28.4626 119C29.099 119 29.7292 118.877 30.3172 118.638C30.9052 118.4 31.4395 118.05 31.8895 117.609C32.3395 117.168 32.6965 116.644 32.9401 116.068C33.1836 115.491 33.309 114.874 33.309 114.25C33.309 113.626 33.1836 113.008 32.9401 112.432C32.6965 111.856 32.3395 111.332 31.8895 110.891C31.4395 110.45 30.9052 110.1 30.3172 109.862C29.7292 109.623 29.099 109.5 28.4626 109.5C27.1773 109.5 25.9446 110 25.0357 110.891C24.1268 111.782 23.6162 112.99 23.6162 114.25C23.6162 115.51 24.1268 116.718 25.0357 117.609C25.9446 118.5 27.1773 119 28.4626 119ZM28.4626 115.833C28.0341 115.833 27.6232 115.666 27.3203 115.37C27.0173 115.073 26.8471 114.67 26.8471 114.25C26.8471 113.83 27.0173 113.427 27.3203 113.13C27.6232 112.834 28.0341 112.667 28.4626 112.667C28.891 112.667 29.3019 112.834 29.6049 113.13C29.9079 113.427 30.0781 113.83 30.0781 114.25C30.0781 114.67 29.9079 115.073 29.6049 115.37C29.3019 115.666 28.891 115.833 28.4626 115.833Z" fill="#F5F5F5"/>
</svg>
