<svg width="35" height="105" viewBox="0 0 35 105" fill="none" xmlns="http://www.w3.org/2000/svg">
<path d="M15.2511 96.1786H29V98.1071H15.2511V96.1786Z" fill="#F5F5F5"/>
<path d="M8.54355 97.1429L6.00982 99.6307L7.39453 101L11.3228 97.1429L7.39453 93.2857L6 94.6454L8.54355 97.1429Z" fill="#F5F5F5"/>
<path d="M15.2511 86.5357H29V88.4643H15.2511V86.5357Z" fill="#F5F5F5"/>
<path d="M8.54355 87.5L6.00982 89.9879L7.39453 91.3571L11.3228 87.5L7.39453 83.6429L6 85.0025L8.54355 87.5Z" fill="#F5F5F5"/>
<path d="M15.2511 76.8929H29V78.8214H15.2511V76.8929Z" fill="#F5F5F5"/>
<path d="M8.54355 77.8571L6.00982 80.345L7.39453 81.7143L11.3228 77.8571L7.39453 74L6 75.3596L8.54355 77.8571Z" fill="#F5F5F5"/>
<path d="M15.2511 61.1786H29V63.1071H15.2511V61.1786Z" fill="#747474"/>
<path d="M8.54355 62.1429L6.00982 64.6307L7.39453 66L11.3228 62.1429L7.39453 58.2857L6 59.6454L8.54355 62.1429Z" fill="#747474"/>
<path d="M15.2511 51.5357H29V53.4643H15.2511V51.5357Z" fill="#747474"/>
<path d="M8.54355 52.5L6.00982 54.9879L7.39453 56.3571L11.3228 52.5L7.39453 48.6429L6 50.0025L8.54355 52.5Z" fill="#747474"/>
<path d="M15.2511 41.8929H29V43.8214H15.2511V41.8929Z" fill="#747474"/>
<path d="M8.54355 42.8571L6.00982 45.345L7.39453 46.7143L11.3228 42.8571L7.39453 39L6 40.3596L8.54355 42.8571Z" fill="#747474"/>
<path d="M15.2511 26.1786H29V28.1071H15.2511V26.1786Z" fill="#181818"/>
<path d="M8.54355 27.1429L6.00982 29.6307L7.39453 31L11.3228 27.1429L7.39453 23.2857L6 24.6454L8.54355 27.1429Z" fill="#181818"/>
<path d="M15.2511 16.5357H29V18.4643H15.2511V16.5357Z" fill="#181818"/>
<path d="M8.54355 17.5L6.00982 19.9879L7.39453 21.3571L11.3228 17.5L7.39453 13.6429L6 15.0025L8.54355 17.5Z" fill="#181818"/>
<path d="M15.2511 6.89286H29V8.82143H15.2511V6.89286Z" fill="#181818"/>
<path d="M8.54355 7.85714L6.00982 10.345L7.39453 11.7143L11.3228 7.85714L7.39453 4L6 5.35964L8.54355 7.85714Z" fill="#181818"/>
</svg>
