<svg width="30" height="60" viewBox="0 0 30 60" fill="none" xmlns="http://www.w3.org/2000/svg">
<path d="M15 59C22.732 59 29 52.732 29 45C29 37.268 22.732 31 15 31C7.26801 31 1 37.268 1 45C1 52.732 7.26801 59 15 59Z" fill="#ED143D"/>
<path d="M12.5528 56V46.1462H10V42.5983H12.5528V39.568C12.5528 37.1868 14.0608 35 17.5353 35C18.9421 35 19.9824 35.1376 19.9824 35.1376L19.9004 38.4507C19.9004 38.4507 18.8395 38.4402 17.6818 38.4402C16.4288 38.4402 16.228 39.0296 16.228 40.0078V42.5983H20L19.8359 46.1462H16.228V56H12.5528Z" fill="#F5F5F5"/>
<path d="M15 29C22.732 29 29 22.732 29 15C29 7.26801 22.732 1 15 1C7.26801 1 1 7.26801 1 15C1 22.732 7.26801 29 15 29Z" fill="#F5F5F5"/>
<path d="M12.5528 26V16.1462H10V12.5983H12.5528V9.56802C12.5528 7.18677 14.0608 5 17.5353 5C18.9421 5 19.9824 5.13765 19.9824 5.13765L19.9004 8.45074C19.9004 8.45074 18.8395 8.4402 17.6818 8.4402C16.4288 8.4402 16.228 9.02957 16.228 10.0078V12.5983H20L19.8359 16.1462H16.228V26H12.5528Z" fill="#181818"/>
</svg>
