<svg width="35" height="105" viewBox="0 0 35 105" fill="none" xmlns="http://www.w3.org/2000/svg">
<path d="M16.6711 74.2844C16.9081 74.1001 17.1998 74 17.5 74C17.8002 74 18.0919 74.1001 18.3289 74.2844L29.4367 82.9241C29.9238 83.3031 30.3179 83.7883 30.5889 84.3428C30.8598 84.8973 31.0004 85.5064 31 86.1235V98.3001C31 99.0162 30.7155 99.7029 30.2092 100.209C29.7028 100.716 29.0161 101 28.3 101H22.9C22.1839 101 21.4972 100.716 20.9908 100.209C20.4845 99.7029 20.2 99.0162 20.2 98.3001V90.2004H14.8V98.3001C14.8 99.0162 14.5155 99.7029 14.0092 100.209C13.5028 100.716 12.8161 101 12.1 101H6.7C5.98392 101 5.29716 100.716 4.79081 100.209C4.28446 99.7029 4 99.0162 4 98.3001V86.1235C4 84.8708 4.5778 83.6936 5.566 82.9241L16.6711 74.2844V74.2844ZM17.5 77.0599L7.2211 85.0544C7.05836 85.1809 6.92678 85.3431 6.83645 85.5285C6.74612 85.7138 6.69945 85.9173 6.7 86.1235V98.3001H12.1V90.2004C12.1 89.4843 12.3845 88.7976 12.8908 88.2913C13.3972 87.7849 14.0839 87.5005 14.8 87.5005H20.2C20.9161 87.5005 21.6028 87.7849 22.1092 88.2913C22.6155 88.7976 22.9 89.4843 22.9 90.2004V98.3001H28.3V86.1235C28.3006 85.9173 28.2539 85.7138 28.1635 85.5285C28.0732 85.3431 27.9416 85.1809 27.7789 85.0544L17.5 77.0626V77.0599Z" fill="#F5F5F5"/>
<path d="M16.6711 39.2844C16.9081 39.1001 17.1998 39 17.5 39C17.8002 39 18.0919 39.1001 18.3289 39.2844L29.4367 47.9241C29.9238 48.3031 30.3179 48.7883 30.5889 49.3428C30.8598 49.8973 31.0004 50.5064 31 51.1235V63.3001C31 64.0162 30.7155 64.7029 30.2092 65.2092C29.7028 65.7155 29.0161 66 28.3 66H22.9C22.1839 66 21.4972 65.7155 20.9908 65.2092C20.4845 64.7029 20.2 64.0162 20.2 63.3001V55.2004H14.8V63.3001C14.8 64.0162 14.5155 64.7029 14.0092 65.2092C13.5028 65.7155 12.8161 66 12.1 66H6.7C5.98392 66 5.29716 65.7155 4.79081 65.2092C4.28446 64.7029 4 64.0162 4 63.3001V51.1235C4 49.8708 4.5778 48.6936 5.566 47.9241L16.6711 39.2844V39.2844ZM17.5 42.0599L7.2211 50.0544C7.05836 50.1809 6.92678 50.3431 6.83645 50.5285C6.74612 50.7138 6.69945 50.9173 6.7 51.1235V63.3001H12.1V55.2004C12.1 54.4843 12.3845 53.7976 12.8908 53.2913C13.3972 52.7849 14.0839 52.5005 14.8 52.5005H20.2C20.9161 52.5005 21.6028 52.7849 22.1092 53.2913C22.6155 53.7976 22.9 54.4843 22.9 55.2004V63.3001H28.3V51.1235C28.3006 50.9173 28.2539 50.7138 28.1635 50.5285C28.0732 50.3431 27.9416 50.1809 27.7789 50.0544L17.5 42.0626V42.0599Z" fill="#989898"/>
<path d="M16.6711 4.28443C16.9081 4.10008 17.1998 4 17.5 4C17.8002 4 18.0919 4.10008 18.3289 4.28443L29.4367 12.9241C29.9238 13.3031 30.3179 13.7883 30.5889 14.3428C30.8598 14.8973 31.0004 15.5064 31 16.1235V28.3001C31 29.0162 30.7155 29.7029 30.2092 30.2092C29.7028 30.7155 29.0161 31 28.3 31H22.9C22.1839 31 21.4972 30.7155 20.9908 30.2092C20.4845 29.7029 20.2 29.0162 20.2 28.3001V20.2004H14.8V28.3001C14.8 29.0162 14.5155 29.7029 14.0092 30.2092C13.5028 30.7155 12.8161 31 12.1 31H6.7C5.98392 31 5.29716 30.7155 4.79081 30.2092C4.28446 29.7029 4 29.0162 4 28.3001V16.1235C4 14.8708 4.5778 13.6936 5.566 12.9241L16.6711 4.28443V4.28443ZM17.5 7.05993L7.2211 15.0544C7.05836 15.1809 6.92678 15.3431 6.83645 15.5285C6.74612 15.7138 6.69945 15.9173 6.7 16.1235V28.3001H12.1V20.2004C12.1 19.4843 12.3845 18.7976 12.8908 18.2913C13.3972 17.7849 14.0839 17.5005 14.8 17.5005H20.2C20.9161 17.5005 21.6028 17.7849 22.1092 18.2913C22.6155 18.7976 22.9 19.4843 22.9 20.2004V28.3001H28.3V16.1235C28.3006 15.9173 28.2539 15.7138 28.1635 15.5285C28.0732 15.3431 27.9416 15.1809 27.7789 15.0544L17.5 7.06263V7.05993Z" fill="#181818"/>
</svg>
