<svg width="30" height="60" viewBox="0 0 30 60" fill="none" xmlns="http://www.w3.org/2000/svg">
<path d="M15 29C22.732 29 29 22.732 29 15C29 7.26801 22.732 1 15 1C7.26801 1 1 7.26801 1 15C1 22.732 7.26801 29 15 29Z" fill="#F5F5F5"/>
<path d="M15 59C22.732 59 29 52.732 29 45C29 37.268 22.732 31 15 31C7.26801 31 1 37.268 1 45C1 52.732 7.26801 59 15 59Z" fill="#ED143D"/>
<path fill-rule="evenodd" clip-rule="evenodd" d="M11.7018 7.048C12.5549 7.00873 12.8269 7 15 7C17.1731 7 17.4451 7.00945 18.2975 7.048C19.1499 7.08655 19.7316 7.22255 20.2407 7.41964C20.7739 7.62109 21.2575 7.936 21.6575 8.34327C22.0647 8.74255 22.3789 9.22545 22.5796 9.75927C22.7775 10.2684 22.9127 10.8502 22.952 11.7011C22.9913 12.5556 23 12.8276 23 15C23 17.1731 22.9905 17.4451 22.952 18.2981C22.9135 19.1491 22.7775 19.7309 22.5796 20.24C22.3789 20.7739 22.0643 21.2576 21.6575 21.6575C21.2575 22.0647 20.7739 22.3789 20.2407 22.5796C19.7316 22.7775 19.1499 22.9127 18.2989 22.952C17.4451 22.9913 17.1731 23 15 23C12.8269 23 12.5549 22.9905 11.7018 22.952C10.8509 22.9135 10.2691 22.7775 9.76 22.5796C9.22612 22.3789 8.74241 22.0641 8.34255 21.6575C7.93555 21.258 7.62059 20.7744 7.41964 20.2407C7.22255 19.7316 7.08727 19.1499 7.048 18.2989C7.00873 17.4444 7 17.1724 7 15C7 12.8269 7.00945 12.5549 7.048 11.7025C7.08655 10.8502 7.22255 10.2684 7.41964 9.75927C7.62089 9.22552 7.93608 8.74204 8.34327 8.34255C8.74257 7.93564 9.2258 7.62068 9.75927 7.41964C10.2684 7.22255 10.8509 7.08727 11.7018 7.048ZM18.2327 8.488C17.3891 8.44945 17.136 8.44145 15 8.44145C12.864 8.44145 12.6109 8.44945 11.7673 8.488C10.9869 8.52364 10.5636 8.65381 10.2815 8.76364C9.90836 8.90909 9.64145 9.08145 9.36145 9.36145C9.09603 9.61968 8.89177 9.93403 8.76364 10.2815C8.65381 10.5636 8.52364 10.9869 8.488 11.7673C8.44945 12.6109 8.44145 12.864 8.44145 15C8.44145 17.136 8.44945 17.3891 8.488 18.2327C8.52364 19.0131 8.65381 19.4364 8.76364 19.7185C8.89164 20.0655 9.096 20.3804 9.36145 20.6385C9.61964 20.904 9.93455 21.1084 10.2815 21.2364C10.5636 21.3461 10.9869 21.4764 11.7673 21.512C12.6109 21.5505 12.8633 21.5585 15 21.5585C17.1367 21.5585 17.3891 21.5505 18.2327 21.512C19.0131 21.4764 19.4364 21.3461 19.7185 21.2364C20.0916 21.0909 20.3585 20.9185 20.6385 20.6385C20.904 20.3804 21.1084 20.0655 21.2364 19.7185C21.3461 19.4364 21.4764 19.0131 21.512 18.2327C21.5505 17.3891 21.5585 17.136 21.5585 15C21.5585 12.864 21.5505 12.6109 21.512 11.7673C21.4764 10.9869 21.3461 10.5636 21.2364 10.2815C21.0909 9.90836 20.9185 9.64145 20.6385 9.36145C20.3803 9.09605 20.066 8.89179 19.7185 8.76364C19.4364 8.65381 19.0131 8.52364 18.2327 8.488ZM13.9781 17.4661C14.5488 17.7037 15.1843 17.7357 15.776 17.5569C16.3676 17.378 16.8788 16.9992 17.2223 16.4853C17.5657 15.9713 17.72 15.3541 17.6589 14.7389C17.5979 14.1239 17.3251 13.5491 16.8873 13.1127C16.6081 12.8339 16.2707 12.6203 15.8992 12.4873C15.5276 12.3545 15.1312 12.3057 14.7385 12.3444C14.3459 12.3832 13.9667 12.5085 13.6283 12.7113C13.2897 12.9143 13.0005 13.1896 12.7813 13.5177C12.5621 13.8457 12.4183 14.2184 12.3604 14.6087C12.3024 14.9991 12.3317 15.3973 12.4463 15.7749C12.5607 16.1525 12.7575 16.5001 13.0224 16.7925C13.2872 17.0849 13.6137 17.3151 13.9781 17.4661ZM12.0924 12.0924C12.4741 11.7105 12.9275 11.4076 13.4264 11.201C13.9253 10.9943 14.46 10.888 15 10.888C15.54 10.888 16.0747 10.9943 16.5736 11.201C17.0725 11.4076 17.5257 11.7105 17.9076 12.0924C18.2895 12.4741 18.5924 12.9275 18.7991 13.4264C19.0056 13.9253 19.112 14.46 19.112 15C19.112 15.54 19.0056 16.0747 18.7991 16.5736C18.5924 17.0725 18.2895 17.5257 17.9076 17.9076C17.1365 18.6788 16.0905 19.112 15 19.112C13.9095 19.112 12.8635 18.6788 12.0924 17.9076C11.3212 17.1365 10.888 16.0905 10.888 15C10.888 13.9095 11.3212 12.8635 12.0924 12.0924ZM20.024 11.5004C20.1187 11.4111 20.1944 11.3038 20.2468 11.1847C20.2992 11.0657 20.3272 10.9373 20.3291 10.8072C20.3309 10.6772 20.3067 10.548 20.2579 10.4275C20.2089 10.307 20.1363 10.1975 20.0444 10.1055C19.9524 10.0135 19.8428 9.94092 19.7223 9.89201C19.6017 9.84311 19.4727 9.81889 19.3425 9.82079C19.2125 9.82268 19.0841 9.85065 18.9651 9.90305C18.846 9.95544 18.7387 10.0312 18.6495 10.1258C18.4759 10.3098 18.3808 10.5543 18.3845 10.8072C18.3881 11.0602 18.4903 11.3017 18.6692 11.4806C18.8481 11.6595 19.0896 11.7616 19.3425 11.7653C19.5956 11.769 19.84 11.674 20.024 11.5004Z" fill="#181818"/>
<path fill-rule="evenodd" clip-rule="evenodd" d="M11.7018 37.048C12.5549 37.0087 12.8269 37 15 37C17.1731 37 17.4451 37.0095 18.2975 37.048C19.1499 37.0865 19.7316 37.2225 20.2407 37.4196C20.7739 37.6211 21.2575 37.936 21.6575 38.3433C22.0647 38.7425 22.3789 39.2255 22.5796 39.7593C22.7775 40.2684 22.9127 40.8502 22.952 41.7011C22.9913 42.5556 23 42.8276 23 45C23 47.1731 22.9905 47.4451 22.952 48.2981C22.9135 49.1491 22.7775 49.7309 22.5796 50.24C22.3789 50.7739 22.0643 51.2576 21.6575 51.6575C21.2575 52.0647 20.7739 52.3789 20.2407 52.5796C19.7316 52.7775 19.1499 52.9127 18.2989 52.952C17.4451 52.9913 17.1731 53 15 53C12.8269 53 12.5549 52.9905 11.7018 52.952C10.8509 52.9135 10.2691 52.7775 9.76 52.5796C9.22612 52.3789 8.74241 52.0641 8.34255 51.6575C7.93555 51.258 7.62059 50.7744 7.41964 50.2407C7.22255 49.7316 7.08727 49.1499 7.048 48.2989C7.00873 47.4444 7 47.1724 7 45C7 42.8269 7.00945 42.5549 7.048 41.7025C7.08655 40.8502 7.22255 40.2684 7.41964 39.7593C7.62089 39.2255 7.93608 38.742 8.34327 38.3425C8.74257 37.9356 9.2258 37.6207 9.75927 37.4196C10.2684 37.2225 10.8509 37.0873 11.7018 37.048ZM18.2327 38.488C17.3891 38.4495 17.136 38.4415 15 38.4415C12.864 38.4415 12.6109 38.4495 11.7673 38.488C10.9869 38.5236 10.5636 38.6538 10.2815 38.7636C9.90836 38.9091 9.64145 39.0815 9.36145 39.3615C9.09603 39.6197 8.89177 39.934 8.76364 40.2815C8.65381 40.5636 8.52364 40.9869 8.488 41.7673C8.44945 42.6109 8.44145 42.864 8.44145 45C8.44145 47.136 8.44945 47.3891 8.488 48.2327C8.52364 49.0131 8.65381 49.4364 8.76364 49.7185C8.89164 50.0655 9.096 50.3804 9.36145 50.6385C9.61964 50.904 9.93455 51.1084 10.2815 51.2364C10.5636 51.3461 10.9869 51.4764 11.7673 51.512C12.6109 51.5505 12.8633 51.5585 15 51.5585C17.1367 51.5585 17.3891 51.5505 18.2327 51.512C19.0131 51.4764 19.4364 51.3461 19.7185 51.2364C20.0916 51.0909 20.3585 50.9185 20.6385 50.6385C20.904 50.3804 21.1084 50.0655 21.2364 49.7185C21.3461 49.4364 21.4764 49.0131 21.512 48.2327C21.5505 47.3891 21.5585 47.136 21.5585 45C21.5585 42.864 21.5505 42.6109 21.512 41.7673C21.4764 40.9869 21.3461 40.5636 21.2364 40.2815C21.0909 39.9084 20.9185 39.6415 20.6385 39.3615C20.3803 39.0961 20.066 38.8918 19.7185 38.7636C19.4364 38.6538 19.0131 38.5236 18.2327 38.488ZM13.9781 47.4661C14.5488 47.7037 15.1843 47.7357 15.776 47.5569C16.3676 47.378 16.8788 46.9992 17.2223 46.4853C17.5657 45.9713 17.72 45.3541 17.6589 44.7389C17.5979 44.1239 17.3251 43.5491 16.8873 43.1127C16.6081 42.8339 16.2707 42.6203 15.8992 42.4873C15.5276 42.3545 15.1312 42.3057 14.7385 42.3444C14.3459 42.3832 13.9667 42.5085 13.6283 42.7113C13.2897 42.9143 13.0005 43.1896 12.7813 43.5177C12.5621 43.8457 12.4183 44.2184 12.3604 44.6087C12.3024 44.9991 12.3317 45.3973 12.4463 45.7749C12.5607 46.1525 12.7575 46.5001 13.0224 46.7925C13.2872 47.0849 13.6137 47.3151 13.9781 47.4661ZM12.0924 42.0924C12.4741 41.7105 12.9275 41.4076 13.4264 41.201C13.9253 40.9943 14.46 40.888 15 40.888C15.54 40.888 16.0747 40.9943 16.5736 41.201C17.0725 41.4076 17.5257 41.7105 17.9076 42.0924C18.2895 42.4741 18.5924 42.9275 18.7991 43.4264C19.0056 43.9253 19.112 44.46 19.112 45C19.112 45.54 19.0056 46.0747 18.7991 46.5736C18.5924 47.0725 18.2895 47.5257 17.9076 47.9076C17.1365 48.6788 16.0905 49.112 15 49.112C13.9095 49.112 12.8635 48.6788 12.0924 47.9076C11.3212 47.1365 10.888 46.0905 10.888 45C10.888 43.9095 11.3212 42.8635 12.0924 42.0924ZM20.024 41.5004C20.1187 41.4111 20.1944 41.3038 20.2468 41.1847C20.2992 41.0657 20.3272 40.9373 20.3291 40.8072C20.3309 40.6772 20.3067 40.548 20.2579 40.4275C20.2089 40.307 20.1363 40.1975 20.0444 40.1055C19.9524 40.0135 19.8428 39.9409 19.7223 39.892C19.6017 39.8431 19.4727 39.8189 19.3425 39.8208C19.2125 39.8227 19.0841 39.8507 18.9651 39.9031C18.846 39.9554 18.7387 40.0312 18.6495 40.1258C18.4759 40.3098 18.3808 40.5543 18.3845 40.8072C18.3881 41.0602 18.4903 41.3017 18.6692 41.4806C18.8481 41.6595 19.0896 41.7616 19.3425 41.7653C19.5956 41.769 19.84 41.674 20.024 41.5004Z" fill="#F5F5F5"/>
</svg>
