<svg width="24" height="24" viewBox="0 0 24 24" fill="none" xmlns="http://www.w3.org/2000/svg">
<circle cx="12" cy="12" r="12" fill="#F5F5F5"/>
<path fill-rule="evenodd" clip-rule="evenodd" d="M9.52636 6.036C10.1662 6.00655 10.3702 6 12 6C13.6298 6 13.8338 6.00709 14.4731 6.036C15.1124 6.06491 15.5487 6.16691 15.9305 6.31473C16.3304 6.46582 16.6931 6.702 16.9931 7.00745C17.2985 7.30691 17.5342 7.66909 17.6847 8.06945C17.8331 8.45127 17.9345 8.88764 17.964 9.52582C17.9935 10.1667 18 10.3707 18 12C18 13.6298 17.9929 13.8338 17.964 14.4736C17.9351 15.1118 17.8331 15.5482 17.6847 15.93C17.5342 16.3304 17.2982 16.6932 16.9931 16.9931C16.6931 17.2985 16.3304 17.5342 15.9305 17.6847C15.5487 17.8331 15.1124 17.9345 14.4742 17.964C13.8338 17.9935 13.6298 18 12 18C10.3702 18 10.1662 17.9929 9.52636 17.964C8.88818 17.9351 8.45182 17.8331 8.07 17.6847C7.66959 17.5342 7.30681 17.2981 7.00691 16.9931C6.70166 16.6935 6.46544 16.3308 6.31473 15.9305C6.16691 15.5487 6.06545 15.1124 6.036 14.4742C6.00655 13.8333 6 13.6293 6 12C6 10.3702 6.00709 10.1662 6.036 9.52691C6.06491 8.88764 6.16691 8.45127 6.31473 8.06945C6.46567 7.66914 6.70206 7.30653 7.00745 7.00691C7.30693 6.70173 7.66935 6.46551 8.06945 6.31473C8.45127 6.16691 8.88818 6.06545 9.52636 6.036ZM14.4245 7.116C13.7918 7.08709 13.602 7.08109 12 7.08109C10.398 7.08109 10.2082 7.08709 9.57545 7.116C8.99018 7.14273 8.67273 7.24036 8.46109 7.32273C8.18127 7.43182 7.98109 7.56109 7.77109 7.77109C7.57202 7.96476 7.41883 8.20052 7.32273 8.46109C7.24036 8.67273 7.14273 8.99018 7.116 9.57545C7.08709 10.2082 7.08109 10.398 7.08109 12C7.08109 13.602 7.08709 13.7918 7.116 14.4245C7.14273 15.0098 7.24036 15.3273 7.32273 15.5389C7.41873 15.7991 7.572 16.0353 7.77109 16.2289C7.96473 16.428 8.20091 16.5813 8.46109 16.6773C8.67273 16.7596 8.99018 16.8573 9.57545 16.884C10.2082 16.9129 10.3975 16.9189 12 16.9189C13.6025 16.9189 13.7918 16.9129 14.4245 16.884C15.0098 16.8573 15.3273 16.7596 15.5389 16.6773C15.8187 16.5682 16.0189 16.4389 16.2289 16.2289C16.428 16.0353 16.5813 15.7991 16.6773 15.5389C16.7596 15.3273 16.8573 15.0098 16.884 14.4245C16.9129 13.7918 16.9189 13.602 16.9189 12C16.9189 10.398 16.9129 10.2082 16.884 9.57545C16.8573 8.99018 16.7596 8.67273 16.6773 8.46109C16.5682 8.18127 16.4389 7.98109 16.2289 7.77109C16.0352 7.57204 15.7995 7.41884 15.5389 7.32273C15.3273 7.24036 15.0098 7.14273 14.4245 7.116ZM11.2336 13.8496C11.6616 14.0278 12.1382 14.0518 12.582 13.9177C13.0257 13.7835 13.4091 13.4994 13.6667 13.114C13.9243 12.7285 14.04 12.2656 13.9942 11.8042C13.9484 11.3429 13.7438 10.9118 13.4155 10.5845C13.2061 10.3754 12.953 10.2152 12.6744 10.1155C12.3957 10.0159 12.0984 9.97929 11.8039 10.0083C11.5094 10.0374 11.225 10.1314 10.9712 10.2835C10.7173 10.4357 10.5004 10.6422 10.336 10.8883C10.1716 11.1343 10.0637 11.4138 10.0203 11.7065C9.97682 11.9993 9.99881 12.298 10.0847 12.5812C10.1705 12.8644 10.3181 13.1251 10.5168 13.3444C10.7154 13.5637 10.9603 13.7363 11.2336 13.8496ZM9.81927 9.81927C10.1056 9.5329 10.4456 9.30573 10.8198 9.15074C11.194 8.99576 11.595 8.91599 12 8.91599C12.405 8.91599 12.806 8.99576 13.1802 9.15074C13.5544 9.30573 13.8943 9.5329 14.1807 9.81927C14.4671 10.1056 14.6943 10.4456 14.8493 10.8198C15.0042 11.194 15.084 11.595 15.084 12C15.084 12.405 15.0042 12.806 14.8493 13.1802C14.6943 13.5544 14.4671 13.8943 14.1807 14.1807C13.6024 14.7591 12.8179 15.084 12 15.084C11.1821 15.084 10.3976 14.7591 9.81927 14.1807C9.24091 13.6024 8.91599 12.8179 8.91599 12C8.91599 11.1821 9.24091 10.3976 9.81927 9.81927ZM15.768 9.37527C15.839 9.30833 15.8958 9.22783 15.9351 9.13853C15.9744 9.04924 15.9954 8.95296 15.9968 8.85542C15.9982 8.75787 15.98 8.66103 15.9434 8.57062C15.9067 8.48022 15.8522 8.3981 15.7833 8.32911C15.7143 8.26013 15.6321 8.20569 15.5417 8.16901C15.4513 8.13233 15.3545 8.11417 15.2569 8.11559C15.1594 8.11701 15.0631 8.13799 14.9738 8.17729C14.8845 8.21658 14.804 8.2734 14.7371 8.34436C14.6069 8.48238 14.5356 8.6657 14.5384 8.85542C14.5411 9.04513 14.6177 9.2263 14.7519 9.36046C14.8861 9.49462 15.0672 9.57122 15.2569 9.57398C15.4467 9.57675 15.63 9.50547 15.768 9.37527Z" fill="#181818"/>
</svg>
