<svg width="35" height="70" viewBox="0 0 35 70" fill="none" xmlns="http://www.w3.org/2000/svg">
<path d="M30.6818 9.25H25.0795V8.59C25.0795 4.399 21.6852 1 17.5 1C13.3148 1 9.92045 4.399 9.92045 8.59V9.25H4.31818C3.58906 9.25 3 9.83988 3 10.57V32.68C3 33.4101 3.58906 34 4.31818 34H30.6818C31.4109 34 32 33.4101 32 32.68V10.57C32 9.83988 31.4109 9.25 30.6818 9.25ZM22.1136 9.25H12.8864V8.59C12.8864 6.03663 14.9501 3.97 17.5 3.97C20.0499 3.97 22.1136 6.03663 22.1136 8.59V9.25Z" fill="#181818"/>
<path d="M30.6818 44.25H25.0795V43.59C25.0795 39.399 21.6852 36 17.5 36C13.3148 36 9.92045 39.399 9.92045 43.59V44.25H4.31818C3.58906 44.25 3 44.8399 3 45.57V67.68C3 68.4101 3.58906 69 4.31818 69H30.6818C31.4109 69 32 68.4101 32 67.68V45.57C32 44.8399 31.4109 44.25 30.6818 44.25ZM22.1136 44.25H12.8864V43.59C12.8864 41.0366 14.9501 38.97 17.5 38.97C20.0499 38.97 22.1136 41.0366 22.1136 43.59V44.25Z" fill="#F5F5F5"/>
</svg>
