<svg width="35" height="105" viewBox="0 0 35 105" fill="none" xmlns="http://www.w3.org/2000/svg">
<path d="M17.5 75C13.6708 75 10.5556 78.0694 10.5556 81.8421C10.5556 85.6148 13.6708 88.6842 17.5 88.6842C21.3292 88.6842 24.4444 85.6148 24.4444 81.8421C24.4444 78.0694 21.3292 75 17.5 75ZM17.5 85.9474C15.2028 85.9474 13.3333 84.1055 13.3333 81.8421C13.3333 79.5787 15.2028 77.7368 17.5 77.7368C19.7972 77.7368 21.6667 79.5787 21.6667 81.8421C21.6667 84.1055 19.7972 85.9474 17.5 85.9474ZM30 101V99.6316C30 94.3508 25.6375 90.0526 20.2778 90.0526H14.7222C9.36111 90.0526 5 94.3508 5 99.6316V101H7.77778V99.6316C7.77778 95.8588 10.8931 92.7895 14.7222 92.7895H20.2778C24.1069 92.7895 27.2222 95.8588 27.2222 99.6316V101H30Z" fill="#F5F5F5"/>
<path d="M17.5 40C13.6708 40 10.5556 43.0694 10.5556 46.8421C10.5556 50.6148 13.6708 53.6842 17.5 53.6842C21.3292 53.6842 24.4444 50.6148 24.4444 46.8421C24.4444 43.0694 21.3292 40 17.5 40ZM17.5 50.9474C15.2028 50.9474 13.3333 49.1055 13.3333 46.8421C13.3333 44.5787 15.2028 42.7368 17.5 42.7368C19.7972 42.7368 21.6667 44.5787 21.6667 46.8421C21.6667 49.1055 19.7972 50.9474 17.5 50.9474ZM30 66V64.6316C30 59.3508 25.6375 55.0526 20.2778 55.0526H14.7222C9.36111 55.0526 5 59.3508 5 64.6316V66H7.77778V64.6316C7.77778 60.8588 10.8931 57.7895 14.7222 57.7895H20.2778C24.1069 57.7895 27.2222 60.8588 27.2222 64.6316V66H30Z" fill="#989898"/>
<path d="M17.5 5C13.6708 5 10.5556 8.06937 10.5556 11.8421C10.5556 15.6148 13.6708 18.6842 17.5 18.6842C21.3292 18.6842 24.4444 15.6148 24.4444 11.8421C24.4444 8.06937 21.3292 5 17.5 5ZM17.5 15.9474C15.2028 15.9474 13.3333 14.1055 13.3333 11.8421C13.3333 9.57874 15.2028 7.73684 17.5 7.73684C19.7972 7.73684 21.6667 9.57874 21.6667 11.8421C21.6667 14.1055 19.7972 15.9474 17.5 15.9474ZM30 31V29.6316C30 24.3508 25.6375 20.0526 20.2778 20.0526H14.7222C9.36111 20.0526 5 24.3508 5 29.6316V31H7.77778V29.6316C7.77778 25.8588 10.8931 22.7895 14.7222 22.7895H20.2778C24.1069 22.7895 27.2222 25.8588 27.2222 29.6316V31H30Z" fill="#181818"/>
</svg>
