<svg width="32" height="32" viewBox="0 0 32 32" fill="none" xmlns="http://www.w3.org/2000/svg">
<path d="M1.36039 0C0.999589 0 0.65357 0.140476 0.398448 0.390525C0.143326 0.640573 0 0.979711 0 1.33333C0 1.68696 0.143326 2.02609 0.398448 2.27614C0.65357 2.52619 0.999589 2.66667 1.36039 2.66667H2.0297C2.32509 2.66717 2.6123 2.76189 2.84791 2.93653C3.08352 3.11117 3.25473 3.35622 3.33567 3.63467L7.65081 18.4347C7.89487 19.2699 8.40975 20.0045 9.11758 20.5275C9.82542 21.0504 10.6877 21.3333 11.5742 21.3333H24.0054C24.8212 21.3335 25.6183 21.094 26.2939 20.6457C26.9695 20.1975 27.4925 19.5611 27.7954 18.8187L31.8058 8.98933C31.9707 8.58487 32.032 8.14698 31.9843 7.71395C31.9366 7.28091 31.7815 6.86591 31.5324 6.50522C31.2833 6.14454 30.9478 5.84914 30.5554 5.64485C30.1629 5.44056 29.7253 5.33361 29.2809 5.33333H6.66045L5.95033 2.90133C5.70689 2.06606 5.19264 1.33116 4.4853 0.807724C3.77797 0.284285 2.916 0.000758315 2.0297 0H1.36039ZM10.2682 17.6987L7.43859 8H29.2782L25.2678 17.8293C25.1667 18.0765 24.9925 18.2883 24.7675 18.4376C24.5425 18.5868 24.2771 18.6666 24.0054 18.6667H11.5742C11.2788 18.6662 10.9916 18.5714 10.756 18.3968C10.5203 18.2222 10.3491 17.9771 10.2682 17.6987Z" fill="#F5F5F5"/>
<path d="M12.2435 32C12.7794 32 13.3101 31.8965 13.8053 31.6955C14.3004 31.4945 14.7503 31.1999 15.1293 30.8284C15.5083 30.457 15.8089 30.016 16.014 29.5307C16.2191 29.0454 16.3246 28.5253 16.3246 28C16.3246 27.4747 16.2191 26.9546 16.014 26.4693C15.8089 25.984 15.5083 25.543 15.1293 25.1716C14.7503 24.8001 14.3004 24.5055 13.8053 24.3045C13.3101 24.1035 12.7794 24 12.2435 24C11.1611 24 10.123 24.4214 9.35766 25.1716C8.59229 25.9217 8.16232 26.9391 8.16232 28C8.16232 29.0609 8.59229 30.0783 9.35766 30.8284C10.123 31.5786 11.1611 32 12.2435 32ZM12.2435 29.3333C11.8827 29.3333 11.5367 29.1929 11.2815 28.9428C11.0264 28.6928 10.8831 28.3536 10.8831 28C10.8831 27.6464 11.0264 27.3072 11.2815 27.0572C11.5367 26.8071 11.8827 26.6667 12.2435 26.6667C12.6043 26.6667 12.9503 26.8071 13.2054 27.0572C13.4605 27.3072 13.6039 27.6464 13.6039 28C13.6039 28.3536 13.4605 28.6928 13.2054 28.9428C12.9503 29.1929 12.6043 29.3333 12.2435 29.3333Z" fill="#F5F5F5"/>
<path d="M23.1266 32C23.6625 32 24.1932 31.8965 24.6884 31.6955C25.1835 31.4945 25.6334 31.1999 26.0124 30.8284C26.3913 30.457 26.692 30.016 26.8971 29.5307C27.1022 29.0454 27.2077 28.5253 27.2077 28C27.2077 27.4747 27.1022 26.9546 26.8971 26.4693C26.692 25.984 26.3913 25.543 26.0124 25.1716C25.6334 24.8001 25.1835 24.5055 24.6884 24.3045C24.1932 24.1035 23.6625 24 23.1266 24C22.0442 24 21.0061 24.4214 20.2407 25.1716C19.4754 25.9217 19.0454 26.9391 19.0454 28C19.0454 29.0609 19.4754 30.0783 20.2407 30.8284C21.0061 31.5786 22.0442 32 23.1266 32ZM23.1266 29.3333C22.7658 29.3333 22.4197 29.1929 22.1646 28.9428C21.9095 28.6928 21.7662 28.3536 21.7662 28C21.7662 27.6464 21.9095 27.3072 22.1646 27.0572C22.4197 26.8071 22.7658 26.6667 23.1266 26.6667C23.4874 26.6667 23.8334 26.8071 24.0885 27.0572C24.3436 27.3072 24.4869 27.6464 24.4869 28C24.4869 28.3536 24.3436 28.6928 24.0885 28.9428C23.8334 29.1929 23.4874 29.3333 23.1266 29.3333Z" fill="#F5F5F5"/>
</svg>
