<svg width="24" height="24" viewBox="0 0 24 24" fill="none" xmlns="http://www.w3.org/2000/svg">
<circle cx="12" cy="12" r="12" fill="#F5F5F5"/>
<path d="M20 8.42342C19.4484 8.66396 18.8558 8.82649 18.2328 8.89995C18.8756 8.52145 19.3565 7.92574 19.5858 7.22397C18.9819 7.57697 18.3209 7.82545 17.6317 7.95859C17.1682 7.47158 16.5543 7.14877 15.8852 7.0403C15.2162 6.93183 14.5295 7.04376 13.9317 7.35871C13.334 7.67366 12.8586 8.17401 12.5794 8.78209C12.3002 9.39016 12.2328 10.0719 12.3877 10.7215C11.164 10.6611 9.96694 10.3481 8.87415 9.80288C7.78135 9.25767 6.81726 8.49244 6.04444 7.55683C5.78019 8.0054 5.62825 8.52549 5.62825 9.07938C5.62795 9.578 5.75273 10.069 5.99151 10.5088C6.23029 10.9486 6.57568 11.3236 6.99705 11.6005C6.50837 11.5852 6.03048 11.4552 5.60314 11.2215V11.2605C5.6031 11.9598 5.84892 12.6377 6.2989 13.1789C6.74888 13.7202 7.3753 14.0916 8.07188 14.2302C7.61855 14.3509 7.14327 14.3687 6.68193 14.2822C6.87847 14.8839 7.26129 15.4101 7.77682 15.7871C8.29235 16.1641 8.91477 16.373 9.55695 16.3846C8.46682 17.2268 7.12051 17.6836 5.73461 17.6816C5.48911 17.6816 5.24382 17.6675 5 17.6393C6.40677 18.5294 8.04435 19.0018 9.71682 19C15.3783 19 18.4733 14.3855 18.4733 10.3835C18.4733 10.2535 18.47 10.1221 18.4641 9.99213C19.0661 9.56369 19.5857 9.03315 19.9987 8.42537L20 8.42342Z" fill="#181818"/>
</svg>
