<svg width="30" height="60" viewBox="0 0 30 60" fill="none" xmlns="http://www.w3.org/2000/svg">
<path d="M15 29C22.732 29 29 22.732 29 15C29 7.26801 22.732 1 15 1C7.26801 1 1 7.26801 1 15C1 22.732 7.26801 29 15 29Z" fill="#F5F5F5"/>
<path d="M15 59C22.732 59 29 52.732 29 45C29 37.268 22.732 31 15 31C7.26801 31 1 37.268 1 45C1 52.732 7.26801 59 15 59Z" fill="#ED143D"/>
<path d="M24 9.77927C23.3381 10.0799 22.627 10.2831 21.8794 10.3749C22.6507 9.90181 23.2278 9.15718 23.503 8.27996C22.7783 8.72121 21.9851 9.03181 21.158 9.19824C20.6018 8.58948 19.8652 8.18596 19.0622 8.05038C18.2594 7.91479 17.4354 8.0547 16.718 8.44839C16.0008 8.84208 15.4303 9.46751 15.0953 10.2276C14.7602 10.9877 14.6794 11.8399 14.8652 12.6519C13.3968 12.5764 11.9603 12.1851 10.649 11.5036C9.33762 10.8221 8.18071 9.86555 7.25333 8.69604C6.93623 9.25675 6.7539 9.90686 6.7539 10.5992C6.75354 11.2225 6.90328 11.8362 7.18981 12.386C7.47635 12.9357 7.89082 13.4045 8.39646 13.7506C7.81004 13.7315 7.23658 13.569 6.72377 13.2769V13.3256C6.72372 14.1997 7.0187 15.0471 7.55868 15.7236C8.09866 16.4002 8.85036 16.8645 9.68626 17.0377C9.14226 17.1886 8.57192 17.2109 8.01832 17.1027C8.25416 17.8549 8.71355 18.5126 9.33218 18.9839C9.95082 19.4551 10.6977 19.7162 11.4683 19.7307C10.1602 20.7835 8.54461 21.3545 6.88153 21.352C6.58693 21.352 6.29258 21.3344 6 21.2991C7.68812 22.4117 9.65322 23.0022 11.6602 23C18.454 23 22.168 17.2319 22.168 12.2294C22.168 12.0669 22.164 11.9026 22.1569 11.7402C22.8793 11.2046 23.5028 10.5414 23.9984 9.78171L24 9.77927Z" fill="#181818"/>
<path d="M24 39.7793C23.3381 40.0799 22.627 40.2831 21.8794 40.3749C22.6507 39.9018 23.2278 39.1572 23.503 38.28C22.7783 38.7212 21.9851 39.0318 21.158 39.1982C20.6018 38.5895 19.8652 38.186 19.0622 38.0504C18.2594 37.9148 17.4354 38.0547 16.718 38.4484C16.0008 38.8421 15.4303 39.4675 15.0953 40.2276C14.7602 40.9877 14.6794 41.8399 14.8652 42.6519C13.3968 42.5764 11.9603 42.1851 10.649 41.5036C9.33762 40.8221 8.18071 39.8655 7.25333 38.696C6.93623 39.2568 6.7539 39.9069 6.7539 40.5992C6.75354 41.2225 6.90328 41.8362 7.18981 42.386C7.47635 42.9357 7.89082 43.4045 8.39646 43.7506C7.81004 43.7315 7.23658 43.569 6.72377 43.2769V43.3256C6.72372 44.1997 7.0187 45.0471 7.55868 45.7236C8.09866 46.4002 8.85036 46.8645 9.68626 47.0377C9.14226 47.1886 8.57192 47.2109 8.01832 47.1027C8.25416 47.8549 8.71355 48.5126 9.33218 48.9839C9.95082 49.4551 10.6977 49.7162 11.4683 49.7307C10.1602 50.7835 8.54461 51.3545 6.88153 51.352C6.58693 51.352 6.29258 51.3344 6 51.2991C7.68812 52.4117 9.65322 53.0022 11.6602 53C18.454 53 22.168 47.2319 22.168 42.2294C22.168 42.0669 22.164 41.9026 22.1569 41.7402C22.8793 41.2046 23.5028 40.5414 23.9984 39.7817L24 39.7793Z" fill="#F5F5F5"/>
</svg>
