<svg width="24" height="24" viewBox="0 0 24 24" fill="none" xmlns="http://www.w3.org/2000/svg">
<circle cx="12" cy="12" r="12" fill="#F5F5F5"/>
<path d="M18.7152 8.57223C18.6355 8.27063 18.4798 7.99558 18.2636 7.77446C18.0473 7.55334 17.7781 7.39385 17.4827 7.31188C16.3872 7.005 12.0048 7.00001 12.0048 7.00001C12.0048 7.00001 7.62315 6.99501 6.52702 7.28833C6.23178 7.37407 5.96309 7.53581 5.74677 7.75802C5.53044 7.98023 5.37374 8.25544 5.29169 8.55724C5.0028 9.67485 5 11.9929 5 11.9929C5 11.9929 4.9972 14.3223 5.284 15.4285C5.44489 16.0401 5.91705 16.5233 6.51723 16.6881C7.62385 16.995 11.9944 17 11.9944 17C11.9944 17 16.3768 17.005 17.4722 16.7124C17.7677 16.6306 18.0372 16.4714 18.254 16.2508C18.4708 16.0301 18.6273 15.7555 18.7082 15.4542C18.9978 14.3373 18.9999 12.02 18.9999 12.02C18.9999 12.02 19.0139 9.68984 18.7152 8.57223V8.57223ZM10.603 14.1403L10.6065 9.85827L14.2489 12.0029L10.603 14.1403V14.1403Z" fill="#181818"/>
</svg>
