<svg width="30" height="60" viewBox="0 0 30 60" fill="none" xmlns="http://www.w3.org/2000/svg">
<path d="M15 29C22.732 29 29 22.732 29 15C29 7.26801 22.732 1 15 1C7.26801 1 1 7.26801 1 15C1 22.732 7.26801 29 15 29Z" fill="#F5F5F5"/>
<path d="M15 59C22.732 59 29 52.732 29 45C29 37.268 22.732 31 15 31C7.26801 31 1 37.268 1 45C1 52.732 7.26801 59 15 59Z" fill="#ED143D"/>
<path d="M23.6338 10.0439C23.5314 9.65181 23.3312 9.29425 23.0532 9.00679C22.7751 8.71934 22.429 8.512 22.0492 8.40544C20.6407 8.00649 15.0062 8.00001 15.0062 8.00001C15.0062 8.00001 9.37262 7.99351 7.96331 8.37482C7.58372 8.48629 7.23826 8.69655 6.96013 8.98542C6.682 9.27429 6.48052 9.63207 6.37503 10.0244C6.0036 11.4773 6 14.4908 6 14.4908C6 14.4908 5.9964 17.519 6.36514 18.957C6.572 19.7521 7.17907 20.3803 7.95072 20.5945C9.37352 20.9935 14.9928 21 14.9928 21C14.9928 21 20.6273 21.0065 22.0357 20.6261C22.4156 20.5198 22.7621 20.3128 23.0409 20.026C23.3196 19.7391 23.5208 19.3821 23.6248 18.9905C23.9972 17.5385 23.9999 14.526 23.9999 14.526C23.9999 14.526 24.0179 11.4968 23.6338 10.0439ZM13.2039 17.2824L13.2084 11.7157L17.8914 14.5038L13.2039 17.2824Z" fill="#181818"/>
<path d="M23.6338 40.0439C23.5314 39.6518 23.3312 39.2942 23.0532 39.0068C22.7751 38.7193 22.429 38.512 22.0492 38.4054C20.6407 38.0065 15.0062 38 15.0062 38C15.0062 38 9.37262 37.9935 7.96331 38.3748C7.58372 38.4863 7.23826 38.6965 6.96013 38.9854C6.682 39.2743 6.48052 39.6321 6.37503 40.0244C6.0036 41.4773 6 44.4908 6 44.4908C6 44.4908 5.9964 47.519 6.36514 48.957C6.572 49.7521 7.17907 50.3803 7.95072 50.5945C9.37352 50.9935 14.9928 51 14.9928 51C14.9928 51 20.6273 51.0065 22.0357 50.6261C22.4156 50.5198 22.7621 50.3128 23.0409 50.026C23.3196 49.7391 23.5208 49.3821 23.6248 48.9905C23.9972 47.5385 23.9999 44.526 23.9999 44.526C23.9999 44.526 24.0179 41.4968 23.6338 40.0439ZM13.2039 47.2824L13.2084 41.7157L17.8914 44.5038L13.2039 47.2824Z" fill="#F5F5F5"/>
</svg>
