<svg width="70" height="105" viewBox="0 0 70 105" fill="none" xmlns="http://www.w3.org/2000/svg">
<path d="M50.251 96.1786H63.9999V98.1071H50.251V96.1786Z" fill="#DC143C"/>
<path d="M43.5435 97.1428L41.0098 99.6306L42.3945 101L46.3228 97.1428L42.3945 93.2856L41 94.6453L43.5435 97.1428Z" fill="#DC143C"/>
<path d="M50.251 86.5356H63.9999V88.4642H50.251V86.5356Z" fill="#DC143C"/>
<path d="M43.5435 87.5L41.0098 89.9879L42.3945 91.3571L46.3228 87.5L42.3945 83.6429L41 85.0025L43.5435 87.5Z" fill="#DC143C"/>
<path d="M50.251 76.8929H63.9999V78.8214H50.251V76.8929Z" fill="#DC143C"/>
<path d="M43.5435 77.8571L41.0098 80.345L42.3945 81.7143L46.3228 77.8571L42.3945 74L41 75.3596L43.5435 77.8571Z" fill="#DC143C"/>
<path d="M50.251 61.1786H63.9999V63.1071H50.251V61.1786Z" fill="#DC143C"/>
<path d="M43.5435 62.1428L41.0098 64.6306L42.3945 65.9999L46.3228 62.1428L42.3945 58.2856L41 59.6453L43.5435 62.1428Z" fill="#DC143C"/>
<path d="M50.251 51.5356H63.9999V53.4642H50.251V51.5356Z" fill="#DC143C"/>
<path d="M43.5435 52.5L41.0098 54.9879L42.3945 56.3571L46.3228 52.5L42.3945 48.6429L41 50.0025L43.5435 52.5Z" fill="#DC143C"/>
<path d="M50.251 41.8929H63.9999V43.8214H50.251V41.8929Z" fill="#DC143C"/>
<path d="M43.5435 42.8571L41.0098 45.345L42.3945 46.7143L46.3228 42.8571L42.3945 39L41 40.3596L43.5435 42.8571Z" fill="#DC143C"/>
<path d="M50.251 26.1786H63.9999V28.1071H50.251V26.1786Z" fill="#DC143C"/>
<path d="M43.5435 27.1428L41.0098 29.6306L42.3945 30.9999L46.3228 27.1428L42.3945 23.2856L41 24.6453L43.5435 27.1428Z" fill="#DC143C"/>
<path d="M50.251 16.5356H63.9999V18.4642H50.251V16.5356Z" fill="#DC143C"/>
<path d="M43.5435 17.5L41.0098 19.9879L42.3945 21.3571L46.3228 17.5L42.3945 13.6429L41 15.0025L43.5435 17.5Z" fill="#DC143C"/>
<path d="M50.251 6.89282H63.9999V8.82139H50.251V6.89282Z" fill="#DC143C"/>
<path d="M43.5435 7.85714L41.0098 10.345L42.3945 11.7143L46.3228 7.85714L42.3945 4L41 5.35964L43.5435 7.85714Z" fill="#DC143C"/>
<path d="M15.251 96.1786H28.9999V98.1071H15.251V96.1786Z" fill="#F5F5F5"/>
<path d="M8.54355 97.1428L6.00982 99.6306L7.39453 101L11.3228 97.1428L7.39453 93.2856L6 94.6453L8.54355 97.1428Z" fill="#F5F5F5"/>
<path d="M15.251 86.5356H28.9999V88.4642H15.251V86.5356Z" fill="#F5F5F5"/>
<path d="M8.54355 87.5L6.00982 89.9879L7.39453 91.3571L11.3228 87.5L7.39453 83.6429L6 85.0025L8.54355 87.5Z" fill="#F5F5F5"/>
<path d="M15.251 76.8929H28.9999V78.8214H15.251V76.8929Z" fill="#F5F5F5"/>
<path d="M8.54355 77.8571L6.00982 80.345L7.39453 81.7143L11.3228 77.8571L7.39453 74L6 75.3596L8.54355 77.8571Z" fill="#F5F5F5"/>
<path d="M15.251 61.1786H28.9999V63.1071H15.251V61.1786Z" fill="#747474"/>
<path d="M8.54355 62.1428L6.00982 64.6306L7.39453 65.9999L11.3228 62.1428L7.39453 58.2856L6 59.6453L8.54355 62.1428Z" fill="#747474"/>
<path d="M15.251 51.5356H28.9999V53.4642H15.251V51.5356Z" fill="#747474"/>
<path d="M8.54355 52.5L6.00982 54.9879L7.39453 56.3571L11.3228 52.5L7.39453 48.6429L6 50.0025L8.54355 52.5Z" fill="#747474"/>
<path d="M15.251 41.8929H28.9999V43.8214H15.251V41.8929Z" fill="#747474"/>
<path d="M8.54355 42.8571L6.00982 45.345L7.39453 46.7143L11.3228 42.8571L7.39453 39L6 40.3596L8.54355 42.8571Z" fill="#747474"/>
<path d="M15.251 26.1786H28.9999V28.1071H15.251V26.1786Z" fill="#181818"/>
<path d="M8.54355 27.1428L6.00982 29.6306L7.39453 30.9999L11.3228 27.1428L7.39453 23.2856L6 24.6453L8.54355 27.1428Z" fill="#181818"/>
<path d="M15.251 16.5356H28.9999V18.4642H15.251V16.5356Z" fill="#181818"/>
<path d="M8.54355 17.5L6.00982 19.9879L7.39453 21.3571L11.3228 17.5L7.39453 13.6429L6 15.0025L8.54355 17.5Z" fill="#181818"/>
<path d="M15.251 6.89282H28.9999V8.82139H15.251V6.89282Z" fill="#181818"/>
<path d="M8.54355 7.85714L6.00982 10.345L7.39453 11.7143L11.3228 7.85714L7.39453 4L6 5.35964L8.54355 7.85714Z" fill="#181818"/>
</svg>
