<svg width="16" height="18" viewBox="0 0 16 18" fill="none" xmlns="http://www.w3.org/2000/svg">
<path d="M7.9 0.958664C8.57309 0.958618 9.22068 1.22525 9.70993 1.70387C10.1992 2.18249 10.493 2.8368 10.5311 3.53259L10.5352 3.68706H14.792C14.946 3.68711 15.0944 3.74771 15.2069 3.85662C15.3195 3.96552 15.388 4.11462 15.3985 4.27377C15.409 4.43293 15.3608 4.59028 15.2635 4.71403C15.1663 4.83777 15.0273 4.9187 14.8747 4.94044L14.792 4.94632H14.1466L13.1087 15.8767C13.0567 16.4216 12.8193 16.9297 12.439 17.3101C12.0586 17.6906 11.56 17.9186 11.0322 17.9536L10.8895 17.9587H4.9105C4.38141 17.9586 3.86956 17.7638 3.46643 17.409C3.0633 17.0542 2.79516 16.5626 2.70993 16.0219L2.69128 15.8758L1.65262 4.94632H1.00802C0.861067 4.94631 0.719088 4.89121 0.60834 4.79121C0.497591 4.6912 0.425563 4.55305 0.405578 4.40232L0.399902 4.31669C0.399909 4.16454 0.453127 4.01754 0.549715 3.90287C0.646304 3.7882 0.779728 3.71363 0.925314 3.69294L1.00802 3.68706H5.26483C5.26483 2.96344 5.54246 2.26947 6.03665 1.75779C6.53084 1.24612 7.20111 0.958664 7.9 0.958664ZM12.9247 4.94632H2.87453L3.90184 15.7524C3.92459 15.9936 4.02721 16.2191 4.19229 16.3908C4.35738 16.5625 4.57475 16.6697 4.80752 16.6944L4.9105 16.6994H10.8895C11.376 16.6994 11.7887 16.3426 11.8827 15.8582L11.899 15.7524L12.9238 4.94632H12.9247ZM9.31893 7.25496C9.46588 7.25497 9.60786 7.31007 9.71861 7.41007C9.82936 7.51008 9.90139 7.64822 9.92137 7.79896L9.92705 7.88459V10.8229V13.7611C9.927 13.9207 9.86847 14.0742 9.76328 14.1908C9.6581 14.3073 9.5141 14.3782 9.36038 14.3891C9.20666 14.4 9.05469 14.35 8.93517 14.2494C8.81565 14.1487 8.73749 14.0048 8.71649 13.8468L8.71082 13.7611V7.88459C8.71082 7.7176 8.77489 7.55745 8.88893 7.43937C9.00297 7.3213 9.15765 7.25496 9.31893 7.25496ZM6.48106 7.25496C6.62801 7.25497 6.76999 7.31007 6.88074 7.41007C6.99149 7.51008 7.06351 7.64822 7.0835 7.79896L7.08917 7.88459V13.7611C7.08913 13.9207 7.0306 14.0742 6.92541 14.1908C6.82022 14.3073 6.67622 14.3782 6.52251 14.3891C6.36879 14.4 6.21682 14.35 6.0973 14.2494C5.97778 14.1487 5.89962 14.0048 5.87862 13.8468L5.87294 13.7611V7.88459C5.87294 7.7176 5.93701 7.55745 6.05106 7.43937C6.1651 7.3213 6.31978 7.25496 6.48106 7.25496ZM7.9 2.21792C7.54389 2.21794 7.20081 2.35659 6.93885 2.60635C6.6769 2.85611 6.51523 3.19872 6.48592 3.56617L6.48106 3.68706H9.31893C9.31893 3.29742 9.16944 2.92374 8.90334 2.64822C8.63723 2.37271 8.27632 2.21792 7.9 2.21792Z" fill="#F5F5F5"/>
</svg>
