<svg width="70" height="105" viewBox="0 0 70 105" fill="none" xmlns="http://www.w3.org/2000/svg">
<path d="M16.6711 74.2844C16.9081 74.1001 17.1998 74 17.5 74C17.8002 74 18.0919 74.1001 18.3289 74.2844L29.4367 82.9241C29.9238 83.3031 30.3179 83.7883 30.5889 84.3428C30.8598 84.8973 31.0004 85.5064 31 86.1235V98.3001C31 99.0162 30.7155 99.7029 30.2092 100.209C29.7028 100.716 29.0161 101 28.3 101H22.9C22.1839 101 21.4972 100.716 20.9908 100.209C20.4845 99.7029 20.2 99.0162 20.2 98.3001V90.2004H14.8V98.3001C14.8 99.0162 14.5155 99.7029 14.0092 100.209C13.5028 100.716 12.8161 101 12.1 101H6.7C5.98392 101 5.29716 100.716 4.79081 100.209C4.28446 99.7029 4 99.0162 4 98.3001V86.1235C4 84.8708 4.5778 83.6936 5.566 82.9241L16.6711 74.2844ZM17.5 77.0599L7.2211 85.0544C7.05836 85.1809 6.92678 85.3431 6.83645 85.5285C6.74612 85.7138 6.69945 85.9173 6.7 86.1235V98.3001H12.1V90.2004C12.1 89.4843 12.3845 88.7976 12.8908 88.2913C13.3972 87.7849 14.0839 87.5005 14.8 87.5005H20.2C20.9161 87.5005 21.6028 87.7849 22.1092 88.2913C22.6155 88.7976 22.9 89.4843 22.9 90.2004V98.3001H28.3V86.1235C28.3006 85.9173 28.2539 85.7138 28.1635 85.5285C28.0732 85.3431 27.9416 85.1809 27.7789 85.0544L17.5 77.0626V77.0599Z" fill="#F5F5F5"/>
<path d="M51.6711 74.2844C51.9081 74.1001 52.1998 74 52.5 74C52.8002 74 53.0919 74.1001 53.3289 74.2844L64.4367 82.9241C64.9238 83.3031 65.3179 83.7883 65.5889 84.3428C65.8598 84.8973 66.0004 85.5064 66 86.1235V98.3001C66 99.0162 65.7155 99.7029 65.2092 100.209C64.7028 100.716 64.0161 101 63.3 101H57.9C57.1839 101 56.4972 100.716 55.9908 100.209C55.4845 99.7029 55.2 99.0162 55.2 98.3001V90.2004H49.8V98.3001C49.8 99.0162 49.5155 99.7029 49.0092 100.209C48.5028 100.716 47.8161 101 47.1 101H41.7C40.9839 101 40.2972 100.716 39.7908 100.209C39.2845 99.7029 39 99.0162 39 98.3001V86.1235C39 84.8708 39.5778 83.6936 40.566 82.9241L51.6711 74.2844ZM52.5 77.0599L42.2211 85.0544C42.0584 85.1809 41.9268 85.3431 41.8365 85.5285C41.7461 85.7138 41.6994 85.9173 41.7 86.1235V98.3001H47.1V90.2004C47.1 89.4843 47.3845 88.7976 47.8908 88.2913C48.3972 87.7849 49.0839 87.5005 49.8 87.5005H55.2C55.9161 87.5005 56.6028 87.7849 57.1092 88.2913C57.6155 88.7976 57.9 89.4843 57.9 90.2004V98.3001H63.3V86.1235C63.3006 85.9173 63.2539 85.7138 63.1635 85.5285C63.0732 85.3431 62.9416 85.1809 62.7789 85.0544L52.5 77.0626V77.0599Z" fill="#ED143D"/>
<path d="M16.6711 39.2844C16.9081 39.1001 17.1998 39 17.5 39C17.8002 39 18.0919 39.1001 18.3289 39.2844L29.4367 47.9241C29.9238 48.3031 30.3179 48.7883 30.5889 49.3428C30.8598 49.8973 31.0004 50.5064 31 51.1235V63.3001C31 64.0162 30.7155 64.7029 30.2092 65.2092C29.7028 65.7155 29.0161 66 28.3 66H22.9C22.1839 66 21.4972 65.7155 20.9908 65.2092C20.4845 64.7029 20.2 64.0162 20.2 63.3001V55.2004H14.8V63.3001C14.8 64.0162 14.5155 64.7029 14.0092 65.2092C13.5028 65.7155 12.8161 66 12.1 66H6.7C5.98392 66 5.29716 65.7155 4.79081 65.2092C4.28446 64.7029 4 64.0162 4 63.3001V51.1235C4 49.8708 4.5778 48.6936 5.566 47.9241L16.6711 39.2844ZM17.5 42.0599L7.2211 50.0544C7.05836 50.1809 6.92678 50.3431 6.83645 50.5285C6.74612 50.7138 6.69945 50.9173 6.7 51.1235V63.3001H12.1V55.2004C12.1 54.4843 12.3845 53.7976 12.8908 53.2913C13.3972 52.7849 14.0839 52.5005 14.8 52.5005H20.2C20.9161 52.5005 21.6028 52.7849 22.1092 53.2913C22.6155 53.7976 22.9 54.4843 22.9 55.2004V63.3001H28.3V51.1235C28.3006 50.9173 28.2539 50.7138 28.1635 50.5285C28.0732 50.3431 27.9416 50.1809 27.7789 50.0544L17.5 42.0626V42.0599Z" fill="#989898"/>
<path d="M51.6711 39.2844C51.9081 39.1001 52.1998 39 52.5 39C52.8002 39 53.0919 39.1001 53.3289 39.2844L64.4367 47.9241C64.9238 48.3031 65.3179 48.7883 65.5889 49.3428C65.8598 49.8973 66.0004 50.5064 66 51.1235V63.3001C66 64.0162 65.7155 64.7029 65.2092 65.2092C64.7028 65.7155 64.0161 66 63.3 66H57.9C57.1839 66 56.4972 65.7155 55.9908 65.2092C55.4845 64.7029 55.2 64.0162 55.2 63.3001V55.2004H49.8V63.3001C49.8 64.0162 49.5155 64.7029 49.0092 65.2092C48.5028 65.7155 47.8161 66 47.1 66H41.7C40.9839 66 40.2972 65.7155 39.7908 65.2092C39.2845 64.7029 39 64.0162 39 63.3001V51.1235C39 49.8708 39.5778 48.6936 40.566 47.9241L51.6711 39.2844ZM52.5 42.0599L42.2211 50.0544C42.0584 50.1809 41.9268 50.3431 41.8365 50.5285C41.7461 50.7138 41.6994 50.9173 41.7 51.1235V63.3001H47.1V55.2004C47.1 54.4843 47.3845 53.7976 47.8908 53.2913C48.3972 52.7849 49.0839 52.5005 49.8 52.5005H55.2C55.9161 52.5005 56.6028 52.7849 57.1092 53.2913C57.6155 53.7976 57.9 54.4843 57.9 55.2004V63.3001H63.3V51.1235C63.3006 50.9173 63.2539 50.7138 63.1635 50.5285C63.0732 50.3431 62.9416 50.1809 62.7789 50.0544L52.5 42.0626V42.0599Z" fill="#ED143D"/>
<path d="M16.6711 4.28443C16.9081 4.10008 17.1998 4 17.5 4C17.8002 4 18.0919 4.10008 18.3289 4.28443L29.4367 12.9241C29.9238 13.3031 30.3179 13.7883 30.5889 14.3428C30.8598 14.8973 31.0004 15.5064 31 16.1235V28.3001C31 29.0162 30.7155 29.7029 30.2092 30.2092C29.7028 30.7155 29.0161 31 28.3 31H22.9C22.1839 31 21.4972 30.7155 20.9908 30.2092C20.4845 29.7029 20.2 29.0162 20.2 28.3001V20.2004H14.8V28.3001C14.8 29.0162 14.5155 29.7029 14.0092 30.2092C13.5028 30.7155 12.8161 31 12.1 31H6.7C5.98392 31 5.29716 30.7155 4.79081 30.2092C4.28446 29.7029 4 29.0162 4 28.3001V16.1235C4 14.8708 4.5778 13.6936 5.566 12.9241L16.6711 4.28443ZM17.5 7.05993L7.2211 15.0544C7.05836 15.1809 6.92678 15.3431 6.83645 15.5285C6.74612 15.7138 6.69945 15.9173 6.7 16.1235V28.3001H12.1V20.2004C12.1 19.4843 12.3845 18.7976 12.8908 18.2913C13.3972 17.7849 14.0839 17.5005 14.8 17.5005H20.2C20.9161 17.5005 21.6028 17.7849 22.1092 18.2913C22.6155 18.7976 22.9 19.4843 22.9 20.2004V28.3001H28.3V16.1235C28.3006 15.9173 28.2539 15.7138 28.1635 15.5285C28.0732 15.3431 27.9416 15.1809 27.7789 15.0544L17.5 7.06263V7.05993Z" fill="#181818"/>
<path d="M51.6711 4.28443C51.9081 4.10008 52.1998 4 52.5 4C52.8002 4 53.0919 4.10008 53.3289 4.28443L64.4367 12.9241C64.9238 13.3031 65.3179 13.7883 65.5889 14.3428C65.8598 14.8973 66.0004 15.5064 66 16.1235V28.3001C66 29.0162 65.7155 29.7029 65.2092 30.2092C64.7028 30.7155 64.0161 31 63.3 31H57.9C57.1839 31 56.4972 30.7155 55.9908 30.2092C55.4845 29.7029 55.2 29.0162 55.2 28.3001V20.2004H49.8V28.3001C49.8 29.0162 49.5155 29.7029 49.0092 30.2092C48.5028 30.7155 47.8161 31 47.1 31H41.7C40.9839 31 40.2972 30.7155 39.7908 30.2092C39.2845 29.7029 39 29.0162 39 28.3001V16.1235C39 14.8708 39.5778 13.6936 40.566 12.9241L51.6711 4.28443ZM52.5 7.05993L42.2211 15.0544C42.0584 15.1809 41.9268 15.3431 41.8365 15.5285C41.7461 15.7138 41.6994 15.9173 41.7 16.1235V28.3001H47.1V20.2004C47.1 19.4843 47.3845 18.7976 47.8908 18.2913C48.3972 17.7849 49.0839 17.5005 49.8 17.5005H55.2C55.9161 17.5005 56.6028 17.7849 57.1092 18.2913C57.6155 18.7976 57.9 19.4843 57.9 20.2004V28.3001H63.3V16.1235C63.3006 15.9173 63.2539 15.7138 63.1635 15.5285C63.0732 15.3431 62.9416 15.1809 62.7789 15.0544L52.5 7.06263V7.05993Z" fill="#ED143D"/>
</svg>
