<svg width="80" height="80" viewBox="0 0 80 80" fill="none" xmlns="http://www.w3.org/2000/svg">
<path d="M16.6002 3.58933C16.8215 3.8414 16.957 4.14987 16.9894 4.47491C17.0217 4.79994 16.9493 5.12659 16.7816 5.41266C15.4711 7.66839 14.7867 10.1969 14.7914 12.7655C14.7914 21.3104 22.2217 28.2297 31.3792 28.2297C32.5737 28.2297 33.7365 28.1129 34.854 27.8897C35.1966 27.8202 35.5534 27.8468 35.8799 27.9662C36.2065 28.0856 36.4882 28.2926 36.69 28.5613C36.9031 28.8406 37.0117 29.1781 36.999 29.5213C36.9863 29.8645 36.853 30.1941 36.6198 30.459C34.842 32.5063 32.5992 34.156 30.055 35.2876C27.5108 36.4191 24.7294 37.0042 21.9134 37C11.4639 37 3 29.1074 3 19.383C3 12.0642 7.79182 5.78668 14.6146 3.12606C14.9545 2.9914 15.3318 2.96376 15.6898 3.0473C16.0479 3.13084 16.3673 3.32104 16.6002 3.58933Z" fill="#181818"/>
<path d="M56.6002 3.58933C56.8215 3.8414 56.957 4.14987 56.9894 4.47491C57.0217 4.79994 56.9493 5.12659 56.7816 5.41266C55.4711 7.66839 54.7867 10.1969 54.7914 12.7655C54.7914 21.3104 62.2217 28.2297 71.3792 28.2297C72.5737 28.2297 73.7365 28.1129 74.854 27.8897C75.1966 27.8202 75.5534 27.8468 75.8799 27.9662C76.2065 28.0856 76.4882 28.2926 76.69 28.5613C76.9031 28.8406 77.0117 29.1781 76.999 29.5213C76.9863 29.8645 76.853 30.1941 76.6198 30.459C74.842 32.5063 72.5992 34.156 70.055 35.2876C67.5108 36.4191 64.7294 37.0042 61.9134 37C51.4639 37 43 29.1074 43 19.383C43 12.0642 47.7918 5.78668 54.6146 3.12606C54.9545 2.9914 55.3318 2.96376 55.6898 3.0473C56.0479 3.13084 56.3673 3.32104 56.6002 3.58933Z" fill="#DC143C"/>
<path fill-rule="evenodd" clip-rule="evenodd" d="M21.9 42.9C21.9 42.3961 21.6998 41.9128 21.3435 41.5565C20.9872 41.2002 20.5039 41 20 41C19.4961 41 19.0128 41.2002 18.6565 41.5565C18.3002 41.9128 18.1 42.3961 18.1 42.9V44.8C18.1 45.3039 18.3002 45.7872 18.6565 46.1435C19.0128 46.4998 19.4961 46.7 20 46.7C20.5039 46.7 20.9872 46.4998 21.3435 46.1435C21.6998 45.7872 21.9 45.3039 21.9 44.8V42.9ZM8.0433 45.3567C7.685 45.0106 7.205 44.8191 6.7068 44.8234C6.2087 44.8277 5.7321 45.0276 5.3798 45.3798C5.0276 45.7321 4.8277 46.2087 4.8234 46.7068C4.8191 47.205 5.0106 47.685 5.3567 48.0433L7.2567 49.9433C7.615 50.2894 8.095 50.4809 8.5932 50.4766C9.0913 50.4723 9.5679 50.2724 9.9202 49.9202C10.2724 49.5679 10.4723 49.0913 10.4766 48.5932C10.4809 48.095 10.2894 47.615 9.9433 47.2567L8.0433 45.3567ZM34.6433 45.3567C34.287 45.0005 33.8038 44.8004 33.3 44.8004C32.7962 44.8004 32.313 45.0005 31.9567 45.3567L30.0567 47.2567C29.7106 47.615 29.5191 48.095 29.5234 48.5932C29.5277 49.0913 29.7276 49.5679 30.0798 49.9202C30.4321 50.2724 30.9087 50.4723 31.4068 50.4766C31.905 50.4809 32.385 50.2894 32.7433 49.9433L34.6433 48.0433C34.9995 47.687 35.1996 47.2038 35.1996 46.7C35.1996 46.1962 34.9995 45.713 34.6433 45.3567ZM20 50.5C17.4804 50.5 15.0641 51.5009 13.2825 53.2825C11.5009 55.0641 10.5 57.4804 10.5 60C10.5 62.5196 11.5009 64.9359 13.2825 66.7175C15.0641 68.4991 17.4804 69.5 20 69.5C22.5196 69.5 24.9359 68.4991 26.7175 66.7175C28.4991 64.9359 29.5 62.5196 29.5 60C29.5 57.4804 28.4991 55.0641 26.7175 53.2825C24.9359 51.5009 22.5196 50.5 20 50.5ZM2.9 58.1C2.3961 58.1 1.9128 58.3002 1.5565 58.6565C1.2002 59.0128 1 59.4961 1 60C1 60.5039 1.2002 60.9872 1.5565 61.3435C1.9128 61.6998 2.3961 61.9 2.9 61.9H4.8C5.3039 61.9 5.7872 61.6998 6.1435 61.3435C6.4998 60.9872 6.7 60.5039 6.7 60C6.7 59.4961 6.4998 59.0128 6.1435 58.6565C5.7872 58.3002 5.3039 58.1 4.8 58.1H2.9ZM35.2 58.1C34.6961 58.1 34.2128 58.3002 33.8565 58.6565C33.5002 59.0128 33.3 59.4961 33.3 60C33.3 60.5039 33.5002 60.9872 33.8565 61.3435C34.2128 61.6998 34.6961 61.9 35.2 61.9H37.1C37.6039 61.9 38.0872 61.6998 38.4435 61.3435C38.7998 60.9872 39 60.5039 39 60C39 59.4961 38.7998 59.0128 38.4435 58.6565C38.0872 58.3002 37.6039 58.1 37.1 58.1H35.2ZM9.9433 72.7433C10.1248 72.568 10.2695 72.3584 10.3691 72.1266C10.4687 71.8948 10.5211 71.6454 10.5233 71.3932C10.5255 71.1409 10.4774 70.8907 10.3819 70.6572C10.2863 70.4237 10.1452 70.2115 9.9669 70.0331C9.7885 69.8548 9.5763 69.7137 9.3428 69.6181C9.1093 69.5226 8.8591 69.4745 8.6068 69.4767C8.3546 69.4789 8.1052 69.5313 7.8734 69.6309C7.6416 69.7305 7.432 69.8752 7.2567 70.0567L5.3567 71.9567C5.1752 72.132 5.0305 72.3416 4.9309 72.5734C4.8313 72.8052 4.7789 73.0546 4.7767 73.3068C4.7745 73.5591 4.8226 73.8093 4.9181 74.0428C5.0137 74.2763 5.1548 74.4885 5.3331 74.6668C5.5115 74.8452 5.7237 74.9863 5.9572 75.0819C6.1907 75.1774 6.4409 75.2255 6.6932 75.2233C6.9454 75.2211 7.1948 75.1687 7.4266 75.0691C7.6584 74.9695 7.868 74.8248 8.0433 74.6433L9.9433 72.7433ZM32.7433 70.0567C32.385 69.7106 31.905 69.5191 31.4068 69.5234C30.9087 69.5277 30.4321 69.7276 30.0798 70.0798C29.7276 70.4321 29.5277 70.9087 29.5234 71.4068C29.5191 71.905 29.7106 72.385 30.0567 72.7433L31.9567 74.6433C32.315 74.9894 32.795 75.1809 33.2932 75.1766C33.7913 75.1723 34.2679 74.9724 34.6202 74.6202C34.9724 74.2679 35.1723 73.7913 35.1766 73.2932C35.1809 72.795 34.9894 72.315 34.6433 71.9567L32.7433 70.0567ZM21.9 75.2C21.9 74.6961 21.6998 74.2128 21.3435 73.8565C20.9872 73.5002 20.5039 73.3 20 73.3C19.4961 73.3 19.0128 73.5002 18.6565 73.8565C18.3002 74.2128 18.1 74.6961 18.1 75.2V77.1C18.1 77.6039 18.3002 78.0872 18.6565 78.4435C19.0128 78.7998 19.4961 79 20 79C20.5039 79 20.9872 78.7998 21.3435 78.4435C21.6998 78.0872 21.9 77.6039 21.9 77.1V75.2Z" fill="#F5F5F5"/>
<path fill-rule="evenodd" clip-rule="evenodd" d="M61.9 42.9C61.9 42.3961 61.6998 41.9128 61.3435 41.5565C60.9872 41.2002 60.5039 41 60 41C59.4961 41 59.0128 41.2002 58.6565 41.5565C58.3002 41.9128 58.1 42.3961 58.1 42.9V44.8C58.1 45.3039 58.3002 45.7872 58.6565 46.1435C59.0128 46.4998 59.4961 46.7 60 46.7C60.5039 46.7 60.9872 46.4998 61.3435 46.1435C61.6998 45.7872 61.9 45.3039 61.9 44.8V42.9ZM48.0433 45.3567C47.685 45.0106 47.205 44.8191 46.7068 44.8234C46.2087 44.8277 45.7321 45.0276 45.3798 45.3798C45.0276 45.7321 44.8277 46.2087 44.8234 46.7068C44.8191 47.205 45.0106 47.685 45.3567 48.0433L47.2567 49.9433C47.615 50.2894 48.095 50.4809 48.5932 50.4766C49.0913 50.4723 49.5679 50.2724 49.9202 49.9202C50.2724 49.5679 50.4723 49.0913 50.4766 48.5932C50.4809 48.095 50.2894 47.615 49.9433 47.2567L48.0433 45.3567ZM74.6433 45.3567C74.287 45.0005 73.8038 44.8004 73.3 44.8004C72.7962 44.8004 72.313 45.0005 71.9567 45.3567L70.0567 47.2567C69.7106 47.615 69.5191 48.095 69.5234 48.5932C69.5277 49.0913 69.7276 49.5679 70.0798 49.9202C70.4321 50.2724 70.9087 50.4723 71.4068 50.4766C71.905 50.4809 72.385 50.2894 72.7433 49.9433L74.6433 48.0433C74.9995 47.687 75.1996 47.2038 75.1996 46.7C75.1996 46.1962 74.9995 45.713 74.6433 45.3567ZM60 50.5C57.4804 50.5 55.0641 51.5009 53.2825 53.2825C51.5009 55.0641 50.5 57.4804 50.5 60C50.5 62.5196 51.5009 64.9359 53.2825 66.7175C55.0641 68.4991 57.4804 69.5 60 69.5C62.5196 69.5 64.9359 68.4991 66.7175 66.7175C68.4991 64.9359 69.5 62.5196 69.5 60C69.5 57.4804 68.4991 55.0641 66.7175 53.2825C64.9359 51.5009 62.5196 50.5 60 50.5ZM42.9 58.1C42.3961 58.1 41.9128 58.3002 41.5565 58.6565C41.2002 59.0128 41 59.4961 41 60C41 60.5039 41.2002 60.9872 41.5565 61.3435C41.9128 61.6998 42.3961 61.9 42.9 61.9H44.8C45.3039 61.9 45.7872 61.6998 46.1435 61.3435C46.4998 60.9872 46.7 60.5039 46.7 60C46.7 59.4961 46.4998 59.0128 46.1435 58.6565C45.7872 58.3002 45.3039 58.1 44.8 58.1H42.9ZM75.2 58.1C74.6961 58.1 74.2128 58.3002 73.8565 58.6565C73.5002 59.0128 73.3 59.4961 73.3 60C73.3 60.5039 73.5002 60.9872 73.8565 61.3435C74.2128 61.6998 74.6961 61.9 75.2 61.9H77.1C77.6039 61.9 78.0872 61.6998 78.4435 61.3435C78.7998 60.9872 79 60.5039 79 60C79 59.4961 78.7998 59.0128 78.4435 58.6565C78.0872 58.3002 77.6039 58.1 77.1 58.1H75.2ZM49.9433 72.7433C50.1248 72.568 50.2695 72.3584 50.3691 72.1266C50.4687 71.8948 50.5211 71.6454 50.5233 71.3932C50.5255 71.1409 50.4774 70.8907 50.3819 70.6572C50.2863 70.4237 50.1452 70.2115 49.9669 70.0331C49.7885 69.8548 49.5763 69.7137 49.3428 69.6181C49.1093 69.5226 48.8591 69.4745 48.6068 69.4767C48.3546 69.4789 48.1052 69.5313 47.8734 69.6309C47.6416 69.7305 47.432 69.8752 47.2567 70.0567L45.3567 71.9567C45.1752 72.132 45.0305 72.3416 44.9309 72.5734C44.8313 72.8052 44.7789 73.0546 44.7767 73.3068C44.7745 73.5591 44.8226 73.8093 44.9181 74.0428C45.0137 74.2763 45.1548 74.4885 45.3331 74.6668C45.5115 74.8452 45.7237 74.9863 45.9572 75.0819C46.1907 75.1774 46.4409 75.2255 46.6932 75.2233C46.9454 75.2211 47.1948 75.1687 47.4266 75.0691C47.6584 74.9695 47.868 74.8248 48.0433 74.6433L49.9433 72.7433ZM72.7433 70.0567C72.385 69.7106 71.905 69.5191 71.4068 69.5234C70.9087 69.5277 70.4321 69.7276 70.0798 70.0798C69.7276 70.4321 69.5277 70.9087 69.5234 71.4068C69.5191 71.905 69.7106 72.385 70.0567 72.7433L71.9567 74.6433C72.315 74.9894 72.795 75.1809 73.2932 75.1766C73.7913 75.1723 74.2679 74.9724 74.6202 74.6202C74.9724 74.2679 75.1723 73.7913 75.1766 73.2932C75.1809 72.795 74.9894 72.315 74.6433 71.9567L72.7433 70.0567ZM61.9 75.2C61.9 74.6961 61.6998 74.2128 61.3435 73.8565C60.9872 73.5002 60.5039 73.3 60 73.3C59.4961 73.3 59.0128 73.5002 58.6565 73.8565C58.3002 74.2128 58.1 74.6961 58.1 75.2V77.1C58.1 77.6039 58.3002 78.0872 58.6565 78.4435C59.0128 78.7998 59.4961 79 60 79C60.5039 79 60.9872 78.7998 61.3435 78.4435C61.6998 78.0872 61.9 77.6039 61.9 77.1V75.2Z" fill="#DC143C"/>
</svg>
