<svg width="70" height="105" viewBox="0 0 70 105" fill="none" xmlns="http://www.w3.org/2000/svg">
<path d="M17.5 75C13.6708 75 10.5556 78.0694 10.5556 81.8421C10.5556 85.6148 13.6708 88.6842 17.5 88.6842C21.3292 88.6842 24.4444 85.6148 24.4444 81.8421C24.4444 78.0694 21.3292 75 17.5 75ZM17.5 85.9474C15.2028 85.9474 13.3333 84.1055 13.3333 81.8421C13.3333 79.5787 15.2028 77.7368 17.5 77.7368C19.7972 77.7368 21.6667 79.5787 21.6667 81.8421C21.6667 84.1055 19.7972 85.9474 17.5 85.9474ZM30 101V99.6316C30 94.3508 25.6375 90.0526 20.2778 90.0526H14.7222C9.36111 90.0526 5 94.3508 5 99.6316V101H7.77778V99.6316C7.77778 95.8588 10.8931 92.7895 14.7222 92.7895H20.2778C24.1069 92.7895 27.2222 95.8588 27.2222 99.6316V101H30Z" fill="#F5F5F5"/>
<path d="M52.5 75C48.6708 75 45.5556 78.0694 45.5556 81.8421C45.5556 85.6148 48.6708 88.6842 52.5 88.6842C56.3292 88.6842 59.4444 85.6148 59.4444 81.8421C59.4444 78.0694 56.3292 75 52.5 75ZM52.5 85.9474C50.2028 85.9474 48.3333 84.1055 48.3333 81.8421C48.3333 79.5787 50.2028 77.7368 52.5 77.7368C54.7972 77.7368 56.6667 79.5787 56.6667 81.8421C56.6667 84.1055 54.7972 85.9474 52.5 85.9474ZM65 101V99.6316C65 94.3508 60.6375 90.0526 55.2778 90.0526H49.7222C44.3611 90.0526 40 94.3508 40 99.6316V101H42.7778V99.6316C42.7778 95.8588 45.8931 92.7895 49.7222 92.7895H55.2778C59.1069 92.7895 62.2222 95.8588 62.2222 99.6316V101H65Z" fill="#DC143C"/>
<path d="M17.5 40C13.6708 40 10.5556 43.0694 10.5556 46.8421C10.5556 50.6148 13.6708 53.6842 17.5 53.6842C21.3292 53.6842 24.4444 50.6148 24.4444 46.8421C24.4444 43.0694 21.3292 40 17.5 40ZM17.5 50.9474C15.2028 50.9474 13.3333 49.1055 13.3333 46.8421C13.3333 44.5787 15.2028 42.7368 17.5 42.7368C19.7972 42.7368 21.6667 44.5787 21.6667 46.8421C21.6667 49.1055 19.7972 50.9474 17.5 50.9474ZM30 66V64.6316C30 59.3508 25.6375 55.0526 20.2778 55.0526H14.7222C9.36111 55.0526 5 59.3508 5 64.6316V66H7.77778V64.6316C7.77778 60.8588 10.8931 57.7895 14.7222 57.7895H20.2778C24.1069 57.7895 27.2222 60.8588 27.2222 64.6316V66H30Z" fill="#989898"/>
<path d="M52.5 40C48.6708 40 45.5556 43.0694 45.5556 46.8421C45.5556 50.6148 48.6708 53.6842 52.5 53.6842C56.3292 53.6842 59.4444 50.6148 59.4444 46.8421C59.4444 43.0694 56.3292 40 52.5 40ZM52.5 50.9474C50.2028 50.9474 48.3333 49.1055 48.3333 46.8421C48.3333 44.5787 50.2028 42.7368 52.5 42.7368C54.7972 42.7368 56.6667 44.5787 56.6667 46.8421C56.6667 49.1055 54.7972 50.9474 52.5 50.9474ZM65 66V64.6316C65 59.3508 60.6375 55.0526 55.2778 55.0526H49.7222C44.3611 55.0526 40 59.3508 40 64.6316V66H42.7778V64.6316C42.7778 60.8588 45.8931 57.7895 49.7222 57.7895H55.2778C59.1069 57.7895 62.2222 60.8588 62.2222 64.6316V66H65Z" fill="#DC143C"/>
<path d="M17.5 5C13.6708 5 10.5556 8.06937 10.5556 11.8421C10.5556 15.6148 13.6708 18.6842 17.5 18.6842C21.3292 18.6842 24.4444 15.6148 24.4444 11.8421C24.4444 8.06937 21.3292 5 17.5 5ZM17.5 15.9474C15.2028 15.9474 13.3333 14.1055 13.3333 11.8421C13.3333 9.57874 15.2028 7.73684 17.5 7.73684C19.7972 7.73684 21.6667 9.57874 21.6667 11.8421C21.6667 14.1055 19.7972 15.9474 17.5 15.9474ZM30 31V29.6316C30 24.3508 25.6375 20.0526 20.2778 20.0526H14.7222C9.36111 20.0526 5 24.3508 5 29.6316V31H7.77778V29.6316C7.77778 25.8588 10.8931 22.7895 14.7222 22.7895H20.2778C24.1069 22.7895 27.2222 25.8588 27.2222 29.6316V31H30Z" fill="#181818"/>
<path d="M52.5 5C48.6708 5 45.5556 8.06937 45.5556 11.8421C45.5556 15.6148 48.6708 18.6842 52.5 18.6842C56.3292 18.6842 59.4444 15.6148 59.4444 11.8421C59.4444 8.06937 56.3292 5 52.5 5ZM52.5 15.9474C50.2028 15.9474 48.3333 14.1055 48.3333 11.8421C48.3333 9.57874 50.2028 7.73684 52.5 7.73684C54.7972 7.73684 56.6667 9.57874 56.6667 11.8421C56.6667 14.1055 54.7972 15.9474 52.5 15.9474ZM65 31V29.6316C65 24.3508 60.6375 20.0526 55.2778 20.0526H49.7222C44.3611 20.0526 40 24.3508 40 29.6316V31H42.7778V29.6316C42.7778 25.8588 45.8931 22.7895 49.7222 22.7895H55.2778C59.1069 22.7895 62.2222 25.8588 62.2222 29.6316V31H65Z" fill="#DC143C"/>
</svg>
